<svg width="69" height="39" viewBox="0 0 69 39" fill="none" xmlns="http://www.w3.org/2000/svg">
<path d="M7.86926 33.5178C7.89253 32.8329 7.96494 31.9846 8.03477 31.1129H7.98822C6.88399 33.1649 5.28583 33.8005 3.80404 33.8005C1.61885 33.8005 0 32.1273 0 29.5823C0 25.5743 2.84462 21.6855 8.74075 21.6855C10.117 21.6954 11.485 21.9015 12.8034 22.2978L11.6061 28.2152C11.2951 29.9652 11.1453 31.7402 11.1587 33.5178H7.86926ZM8.81057 24.4899C8.47694 24.4288 8.13857 24.3976 7.79944 24.3965C5.52115 24.3965 3.73421 26.7053 3.73421 28.9908C3.73421 30.1712 4.29796 30.9728 5.3091 30.9728C6.39005 30.9728 7.79944 29.8651 8.36319 26.7754L8.81057 24.4899Z" fill="#5A189A"/>
<path d="M12.9355 33.5177L14.3915 25.7351C14.6966 24.2486 14.8621 23.0008 15.0276 21.9864H18.1515L17.9162 24.0125H17.9628C19.1394 22.386 20.6652 21.6777 22.2866 21.6777C24.2597 21.6777 25.4829 22.8322 25.4829 25.0502C25.4663 25.6749 25.4032 26.2975 25.2941 26.9129L24.0554 33.5177H20.5359L21.6866 27.3902C21.7609 26.9539 21.7998 26.5123 21.803 26.0697C21.803 25.1747 21.4979 24.5366 20.51 24.5366C19.2635 24.5366 17.8542 26.0464 17.3602 28.7081L16.4681 33.5177H12.9355Z" fill="#5A189A"/>
<path d="M26.1719 33.5183L28.3571 21.9922H31.8818L29.6966 33.5183H26.1719Z" fill="#5A189A"/>
<path d="M38.5574 16.64L37.1946 23.3356L37.2412 23.359C37.7286 22.83 38.3215 22.4098 38.9813 22.1256C39.6411 21.8414 40.3531 21.6994 41.0711 21.709C43.5847 21.709 44.9009 23.6184 44.9009 25.9506C44.9009 29.5098 42.4106 33.8007 36.8843 33.8007C33.9233 33.8007 32.395 32.5269 32.4182 30.3348C32.4361 29.5655 32.5305 28.7998 32.7001 28.0493L35.0043 16.6348L38.5574 16.64ZM36.23 28.4255C36.1261 28.8574 36.0869 29.3024 36.1137 29.7459C36.1602 30.6409 36.724 31.0897 37.5696 31.0897C39.6384 31.0897 41.19 28.7316 41.19 26.5888C41.19 25.4343 40.603 24.5367 39.4755 24.5367C38.1359 24.5367 36.7498 25.8105 36.305 28.0727L36.23 28.4255Z" fill="#5A189A"/>
<path d="M45.0664 33.5178L46.3103 26.9882C46.662 25.1022 46.7809 22.9568 46.8973 21.9918H49.954C49.9048 22.8167 49.835 23.665 49.7419 24.49H49.8118C50.6108 22.9335 51.9737 21.709 53.7347 21.709C53.9701 21.709 54.2054 21.709 54.4407 21.7323L53.7347 25.1489C53.5718 25.1489 53.4063 25.1256 53.1943 25.1256C50.7505 25.1256 49.7885 27.2009 49.3411 29.5824L48.6222 33.5178H45.0664Z" fill="#5A189A"/>
<path d="M59.6339 21.9922L60.5183 26.8486C60.7511 28.073 60.9166 28.898 61.0355 29.6062H61.0847C61.3433 28.968 61.6019 28.2391 62.1398 26.9886L64.3508 21.9922H68.1083L63.9034 30.0057C62.2355 33.2122 60.8493 35.2616 59.2745 36.7507C57.6996 38.2398 55.8687 38.826 55.0437 38.9194L54.4102 35.8557C55.1597 35.6754 55.8745 35.3721 56.5255 34.9581C57.319 34.4177 57.9846 33.7092 58.4754 32.8827C58.5316 32.8007 58.5655 32.7054 58.5737 32.6061C58.5818 32.5069 58.564 32.4073 58.5219 32.3172L55.9152 21.9922H59.6339Z" fill="#5A189A"/>
<path d="M33.5316 10.7012C33.7987 10.7019 34.0652 10.7262 34.3281 10.7738L33.9764 12.5794C33.5316 15.0154 32.4248 15.8896 31.5714 15.8896C30.7749 15.8896 30.3301 15.2566 30.3301 14.3331C30.3301 12.5197 31.7369 10.7012 33.5316 10.7012Z" fill="#5A189A"/>
<path d="M29.7732 18.0562C27.9421 18.6868 25.9599 18.7252 24.1059 18.1659C22.2518 17.6066 20.6195 16.4778 19.4388 14.9386C18.2581 13.3995 17.5886 11.5274 17.5246 9.58634C17.4606 7.64525 18.0053 5.73293 19.082 4.11882C20.1587 2.50472 21.7131 1.27019 23.5262 0.589178C25.3393 -0.0918325 27.3197 -0.184997 29.1884 0.322813C31.057 0.830623 32.7198 1.91381 33.9423 3.41975C35.1649 4.92569 35.8856 6.77849 36.0029 8.71707C35.431 8.62299 34.8525 8.57442 34.2729 8.5718C29.618 8.5718 27.3863 11.6382 27.3863 14.7979C27.3863 16.549 28.3716 17.7683 29.7732 18.0562Z" fill="#5A189A"/>
</svg>
