<svg width="32" height="32" viewBox="0 0 32 32" fill="none" xmlns="http://www.w3.org/2000/svg">
<rect width="32" height="32" rx="16" fill="#F9F9F9"/>
<path d="M15.9999 18.8866C14.4066 18.8866 13.1133 17.5933 13.1133 15.9999C13.1133 14.4066 14.4066 13.1133 15.9999 13.1133C17.5933 13.1133 18.8866 14.4066 18.8866 15.9999C18.8866 17.5933 17.5933 18.8866 15.9999 18.8866ZM15.9999 14.1133C14.9599 14.1133 14.1133 14.9599 14.1133 15.9999C14.1133 17.0399 14.9599 17.8866 15.9999 17.8866C17.0399 17.8866 17.8866 17.0399 17.8866 15.9999C17.8866 14.9599 17.0399 14.1133 15.9999 14.1133Z" fill="#3C3C3C"/>
<path d="M15.9997 22.0135C13.4931 22.0135 11.1264 20.5468 9.49973 18.0002C8.79306 16.9002 8.79306 15.1068 9.49973 14.0001C11.1331 11.4535 13.4997 9.98682 15.9997 9.98682C18.4997 9.98682 20.8664 11.4535 22.4931 14.0001C23.1997 15.1001 23.1997 16.8935 22.4931 18.0002C20.8664 20.5468 18.4997 22.0135 15.9997 22.0135ZM15.9997 10.9868C13.8464 10.9868 11.7864 12.2801 10.3464 14.5402C9.84639 15.3202 9.84639 16.6801 10.3464 17.4601C11.7864 19.7201 13.8464 21.0135 15.9997 21.0135C18.1531 21.0135 20.2131 19.7201 21.6531 17.4601C22.1531 16.6801 22.1531 15.3202 21.6531 14.5402C20.2131 12.2801 18.1531 10.9868 15.9997 10.9868Z" fill="#3C3C3C"/>
</svg>
