<svg width="968" height="889" viewBox="0 0 968 889" fill="none" xmlns="http://www.w3.org/2000/svg">
<ellipse cx="483" cy="444.68" rx="440" ry="444" fill="#DED1EB"/>
<circle cx="484" cy="446.68" r="244" fill="#E0AAFF"/>
<circle cx="484" cy="444.68" r="100" fill="#5A189A"/>
<path d="M426.331 475.223C426.382 473.721 426.542 471.859 426.696 469.947H426.593C424.161 474.449 420.641 475.844 417.378 475.844C412.565 475.844 409 472.173 409 466.589C409 457.794 415.265 449.262 428.25 449.262C431.282 449.283 434.294 449.736 437.198 450.605L434.561 463.589C433.876 467.429 433.546 471.323 433.576 475.223H426.331ZM428.404 455.415C427.669 455.281 426.924 455.212 426.177 455.21C421.16 455.21 417.224 460.276 417.224 465.291C417.224 467.881 418.466 469.64 420.693 469.64C423.073 469.64 426.177 467.209 427.419 460.43L428.404 455.415Z" fill="white"/>
<path d="M437.489 475.221L440.695 458.145C441.367 454.883 441.732 452.145 442.096 449.92H448.976L448.458 454.365H448.56C451.152 450.796 454.512 449.242 458.083 449.242C462.429 449.242 465.123 451.775 465.123 456.642C465.086 458.013 464.947 459.379 464.707 460.729L461.979 475.221H454.227L456.762 461.776C456.925 460.819 457.011 459.85 457.018 458.879C457.018 456.915 456.346 455.515 454.17 455.515C451.425 455.515 448.321 458.828 447.233 464.668L445.268 475.221H437.489Z" fill="white"/>
<path d="M466.644 475.224L471.456 449.934H479.219L474.406 475.224H466.644Z" fill="white"/>
<path d="M493.918 438.191L490.917 452.882L491.019 452.934C492.093 451.773 493.399 450.851 494.852 450.227C496.305 449.604 497.873 449.292 499.454 449.313C504.99 449.313 507.889 453.503 507.889 458.62C507.889 466.43 502.404 475.844 490.233 475.844C483.712 475.844 480.346 473.05 480.397 468.24C480.437 466.552 480.645 464.872 481.018 463.225L486.093 438.18L493.918 438.191ZM488.792 464.05C488.563 464.998 488.477 465.975 488.536 466.948C488.639 468.911 489.88 469.896 491.743 469.896C496.299 469.896 499.716 464.722 499.716 460.02C499.716 457.487 498.423 455.518 495.94 455.518C492.99 455.518 489.937 458.313 488.957 463.276L488.792 464.05Z" fill="white"/>
<path d="M508.254 475.223L510.994 460.896C511.768 456.758 512.03 452.05 512.286 449.933H519.018C518.91 451.743 518.756 453.604 518.551 455.414H518.705C520.465 451.999 523.467 449.313 527.345 449.313C527.863 449.313 528.382 449.312 528.9 449.364L527.345 456.86C526.986 456.86 526.622 456.809 526.155 456.809C520.773 456.809 518.654 461.363 517.669 466.588L516.085 475.223H508.254Z" fill="white"/>
<path d="M540.336 449.934L542.284 460.589C542.797 463.276 543.161 465.086 543.423 466.64H543.531C544.101 465.24 544.67 463.64 545.855 460.897L550.725 449.934H559L549.739 467.517C546.066 474.552 543.013 479.049 539.545 482.316C536.076 485.583 532.044 486.87 530.227 487.075L528.832 480.352C530.482 479.957 532.057 479.291 533.49 478.383C535.238 477.197 536.704 475.643 537.785 473.829C537.909 473.649 537.983 473.44 538.001 473.222C538.019 473.005 537.98 472.786 537.887 472.588L532.146 449.934H540.336Z" fill="white"/>
<path d="M482.847 425.16C483.435 425.162 484.022 425.215 484.601 425.32L483.826 429.281C482.847 434.626 480.409 436.544 478.529 436.544C476.775 436.544 475.796 435.156 475.796 433.129C475.796 429.15 478.894 425.16 482.847 425.16Z" fill="white"/>
<path d="M474.571 441.298C470.538 442.682 466.173 442.766 462.09 441.539C458.006 440.311 454.411 437.835 451.811 434.457C449.211 431.08 447.736 426.973 447.595 422.714C447.454 418.455 448.654 414.259 451.025 410.717C453.396 407.175 456.82 404.467 460.813 402.972C464.806 401.478 469.168 401.274 473.283 402.388C477.399 403.502 481.061 405.879 483.753 409.183C486.446 412.487 488.033 416.553 488.291 420.806C487.032 420.6 485.758 420.493 484.481 420.488C474.229 420.488 469.314 427.216 469.314 434.149C469.314 437.991 471.484 440.666 474.571 441.298Z" fill="white"/>
<rect x="856" y="390.68" width="112" height="112" rx="56" fill="white"/>
<g clip-path="url(#clip0_1876_9103)">
<path d="M889.145 467.034C887.724 467.034 886.767 468.308 886.767 469.947C886.767 471.585 887.724 472.859 889.145 472.859C890.566 472.859 891.522 471.585 891.522 469.947C891.522 468.308 890.566 467.034 889.145 467.034ZM888.826 465.229C889.968 465.229 890.924 465.896 891.376 466.624V465.411H893.129V474.497H891.788C891.682 474.497 891.581 474.449 891.506 474.364C891.432 474.278 891.39 474.163 891.389 474.042V473.284C890.938 474.012 889.995 474.679 888.839 474.679C886.661 474.679 885.001 472.556 885.001 469.962C885.001 467.368 886.648 465.229 888.826 465.229ZM895.121 465.411H896.874V466.64C897.353 465.729 898.256 465.229 899.292 465.229C901.138 465.229 902.333 466.716 902.333 469.021V474.497H900.992C900.886 474.497 900.785 474.449 900.71 474.364C900.636 474.278 900.594 474.163 900.593 474.042V469.355C900.593 467.914 899.956 467.049 898.933 467.049C897.778 467.049 896.875 468.081 896.875 470.022V474.497H895.533C895.428 474.497 895.326 474.449 895.252 474.364C895.177 474.279 895.135 474.163 895.135 474.042V465.411H895.121ZM907.858 467.034C906.437 467.034 905.481 468.308 905.481 469.947C905.481 471.585 906.437 472.859 907.858 472.859C909.279 472.859 910.236 471.585 910.236 469.947C910.236 468.308 909.279 467.034 907.858 467.034ZM907.539 465.229C908.682 465.229 909.638 465.896 910.09 466.624V460.86H911.843V474.497H910.501C910.396 474.497 910.294 474.449 910.22 474.364C910.145 474.279 910.103 474.163 910.103 474.042V473.284C909.651 474.012 908.708 474.679 907.553 474.679C905.375 474.679 903.714 472.556 903.714 469.962C903.714 467.368 905.361 465.229 907.539 465.229ZM913.835 465.411H915.588V467.034C915.893 466.003 916.783 465.32 917.686 465.32C917.912 465.32 918.138 465.335 918.364 465.396V467.444C918.058 467.337 917.806 467.277 917.487 467.277C916.491 467.277 915.575 468.248 915.575 470.053V474.482H914.233C914.128 474.482 914.027 474.434 913.952 474.349C913.877 474.263 913.835 474.148 913.835 474.027V465.411ZM923.079 472.814C924.473 472.814 925.469 471.555 925.469 469.947C925.469 468.323 924.486 467.08 923.079 467.08C921.657 467.08 920.675 468.338 920.675 469.947C920.688 471.57 921.671 472.814 923.079 472.814ZM923.079 474.679C920.728 474.679 918.908 472.586 918.908 469.962C918.908 467.322 920.728 465.229 923.079 465.229C925.429 465.229 927.249 467.322 927.249 469.962C927.249 472.586 925.443 474.679 923.079 474.679ZM928.67 465.411H930.423V474.497H929.082C928.976 474.497 928.875 474.449 928.8 474.364C928.726 474.278 928.684 474.163 928.683 474.042V465.411H928.67ZM929.547 463.424C928.909 463.424 928.365 462.817 928.365 462.074C928.365 461.346 928.909 460.754 929.547 460.754C930.198 460.754 930.702 461.36 930.702 462.074C930.702 462.817 930.197 463.424 929.547 463.424ZM936.015 467.034C934.594 467.034 933.637 468.308 933.637 469.947C933.637 471.585 934.593 472.859 936.015 472.859C937.436 472.859 938.392 471.585 938.392 469.947C938.379 468.308 937.436 467.034 936.015 467.034ZM935.696 465.229C936.838 465.229 937.794 465.896 938.246 466.624V460.86H939.999V474.497H938.658C938.552 474.497 938.451 474.449 938.376 474.364C938.302 474.279 938.259 474.163 938.259 474.042V473.284C937.808 474.012 936.865 474.679 935.709 474.679C933.531 474.679 931.871 472.556 931.871 469.962C931.871 467.368 933.518 465.229 935.696 465.229Z" fill="black"/>
<path d="M925.974 430.37L930.556 421.313C930.822 420.798 930.662 420.13 930.211 419.827C929.759 419.524 929.175 419.705 928.909 420.221L924.274 429.384C920.728 427.533 916.743 426.501 912.507 426.501C908.257 426.501 904.286 427.533 900.739 429.384L896.104 420.221C895.839 419.705 895.254 419.524 894.803 419.827C894.351 420.13 894.192 420.798 894.457 421.313L899.039 430.37C891.15 435.254 885.784 444.341 885.001 455.066H939.986C939.202 444.341 933.823 435.254 925.974 430.37H925.974ZM899.836 446.116C898.575 446.116 897.552 444.948 897.552 443.506C897.552 442.065 898.575 440.897 899.836 440.897C901.098 440.897 902.121 442.065 902.121 443.506C902.121 444.948 901.098 446.116 899.836 446.116ZM925.15 446.116C923.889 446.116 922.866 444.948 922.866 443.506C922.866 442.065 923.889 440.897 925.15 440.897C926.412 440.897 927.435 442.065 927.435 443.506C927.435 444.948 926.412 446.116 925.15 446.116Z" fill="#3DDC84"/>
</g>
<rect y="390.68" width="112" height="112" rx="56" fill="white"/>
<path d="M74.9828 449.03C74.9514 443.702 77.3827 439.687 82.2926 436.726C79.5465 432.82 75.392 430.671 69.9156 430.257C64.7303 429.851 59.0572 433.257 56.98 433.257C54.7847 433.257 49.7647 430.398 45.8147 430.398C37.6631 430.523 29 436.851 29 449.725C29 453.53 29.7003 457.459 31.1009 461.506C32.9735 466.834 39.7246 479.888 46.7668 479.677C50.4492 479.591 53.0536 477.084 57.8455 477.084C62.4957 477.084 64.9034 479.677 69.0107 479.677C76.1159 479.576 82.2217 467.709 84 462.365C74.4714 457.905 74.9828 449.303 74.9828 449.03ZM66.7132 425.203C70.7024 420.5 70.3405 416.219 70.2225 414.68C66.6974 414.883 62.6216 417.062 60.3004 419.742C57.7432 422.617 56.2403 426.171 56.5629 430.179C60.3712 430.468 63.8491 428.523 66.7132 425.203Z" fill="#16161D"/>
<rect x="428" y="647.68" width="112" height="112" rx="56" fill="white"/>
<g clip-path="url(#clip1_1876_9103)">
<path d="M500.998 676.68H511.996L484.5 731.63L457.004 676.68H478.038L484.5 689.422L490.824 676.68H500.998Z" fill="#41B883"/>
<path d="M457.004 676.68L484.5 731.63L511.996 676.68H500.998L484.5 709.65L467.865 676.68H457.004Z" fill="#41B883"/>
<path d="M467.865 676.68L484.5 709.809L500.998 676.68H490.824L484.5 689.422L478.038 676.68H467.865Z" fill="#35495E"/>
</g>
<rect x="606" y="568.68" width="112" height="112" rx="56" fill="white"/>
<path d="M686.81 597.68H637.31C635.788 597.68 634.56 598.907 634.56 600.43V649.93C634.56 651.452 635.788 652.68 637.31 652.68H686.81C688.333 652.68 689.56 651.452 689.56 649.93V600.43C689.56 598.907 688.333 597.68 686.81 597.68ZM654.731 637.395H649.845V612.964H654.731V637.395ZM674.288 637.395H659.617V632.509H674.288V637.395ZM674.288 627.623H659.617V622.737H674.288V627.623ZM674.288 617.838H659.617V612.952H674.288V617.838Z" fill="#16161D"/>
<rect x="660" y="390.68" width="112" height="112" rx="56" fill="white"/>
<path d="M688.023 428.936L715.158 419.82L743.023 428.774L738.511 462.625L715.158 474.82L692.169 462.787L688.023 428.936Z" fill="#E23237"/>
<path d="M743.023 428.774L715.157 419.82V474.82L738.511 462.645L743.023 428.774Z" fill="#B52E31"/>
<path d="M715.201 426.242L698.292 461.714L704.609 461.612L708.003 453.61H723.171L726.888 461.714L732.925 461.815L715.201 426.242ZM715.244 437.607L720.958 448.87H710.216L715.244 437.607Z" fill="white"/>
<rect x="250" y="568.68" width="112" height="112" rx="56" fill="white"/>
<path d="M319.796 613.789C319.796 613.789 315.337 633.994 314.972 635.663C313.849 623 312.716 610.339 311.571 597.68C303.972 597.68 299.909 605.493 297.762 613.74L291.884 635.713C291.849 634.137 291.059 613.978 291.059 613.978C290.591 603.874 284.184 597.723 279 597.723L285.277 652.68C293.238 652.63 297.53 644.863 299.779 636.616C299.779 636.616 304.568 618.745 304.765 617.934C304.8 618.696 308.203 652.676 308.203 652.676C316.196 652.676 320.491 645.386 322.801 637.427L334 597.726C326.105 597.726 321.944 605.493 319.796 613.786V613.789Z" fill="#16161D"/>
<rect x="429" y="134.68" width="112" height="112" rx="56" fill="white"/>
<g clip-path="url(#clip2_1876_9103)">
<path d="M513.489 172.084L502.164 166.599C501.524 166.289 500.804 166.187 500.104 166.306C499.404 166.426 498.759 166.762 498.257 167.267L461.184 201.264C460.735 201.675 460.465 202.248 460.436 202.858C460.406 203.469 460.619 204.066 461.027 204.518C461.076 204.572 461.125 204.623 461.178 204.67L464.205 207.436C464.601 207.798 465.11 208.01 465.644 208.033C466.178 208.057 466.704 207.892 467.13 207.567L511.784 173.506C512.121 173.249 512.523 173.091 512.945 173.051C513.366 173.011 513.79 173.09 514.17 173.279C514.549 173.469 514.868 173.761 515.091 174.123C515.315 174.485 515.433 174.902 515.433 175.328V175.195C515.433 174.545 515.251 173.908 514.907 173.358C514.563 172.807 514.071 172.366 513.489 172.084Z" fill="#0065A9"/>
<path d="M513.489 215.431L502.164 220.917C501.524 221.227 500.804 221.328 500.105 221.209C499.405 221.089 498.759 220.754 498.257 220.25L461.184 186.25C460.735 185.84 460.465 185.266 460.436 184.656C460.406 184.046 460.619 183.449 461.027 182.997C461.076 182.943 461.125 182.892 461.178 182.844L464.205 180.078C464.601 179.715 465.111 179.503 465.647 179.479C466.182 179.455 466.709 179.621 467.136 179.948L511.784 214.008C512.121 214.266 512.523 214.424 512.945 214.464C513.366 214.504 513.79 214.425 514.17 214.235C514.549 214.046 514.868 213.754 515.091 213.392C515.315 213.03 515.433 212.613 515.433 212.187V212.329C515.431 212.978 515.247 213.612 514.904 214.161C514.56 214.709 514.069 215.15 513.489 215.431Z" fill="#007ACC"/>
<path d="M502.163 220.917C501.524 221.226 500.804 221.328 500.105 221.208C499.405 221.089 498.759 220.753 498.257 220.249C498.539 220.529 498.897 220.719 499.286 220.795C499.675 220.871 500.078 220.831 500.443 220.678C500.809 220.525 501.122 220.267 501.343 219.935C501.564 219.604 501.683 219.215 501.684 218.817V168.698C501.685 168.298 501.567 167.906 501.346 167.573C501.125 167.24 500.81 166.98 500.442 166.827C500.074 166.674 499.67 166.634 499.279 166.712C498.889 166.791 498.53 166.984 498.249 167.268C498.751 166.763 499.396 166.427 500.096 166.307C500.796 166.187 501.516 166.289 502.156 166.598L513.479 172.074C514.063 172.355 514.557 172.796 514.902 173.347C515.248 173.897 515.432 174.535 515.433 175.186V212.328C515.433 212.979 515.251 213.617 514.906 214.168C514.562 214.718 514.07 215.16 513.487 215.442L502.163 220.917Z" fill="#1F9CF0"/>
</g>
<rect x="607" y="212.68" width="112" height="112" rx="56" fill="white"/>
<path d="M685.2 257.319C687.189 260.956 688.228 265.035 688.222 269.18C688.224 273.506 687.089 277.757 684.932 281.507C682.774 285.257 679.67 288.376 675.93 290.55L683.482 268.718C684.892 265.192 685.363 262.368 685.363 259.865C685.363 259.014 685.309 258.163 685.2 257.319ZM666.91 257.558C667.853 257.512 668.794 257.431 669.731 257.316C671.065 257.143 670.909 255.185 669.577 255.256C669.577 255.256 665.554 255.564 662.978 255.564C660.538 255.564 656.446 255.221 656.446 255.221C655.107 255.155 654.934 257.181 656.278 257.25C656.278 257.25 657.513 257.393 658.858 257.456L662.705 268.011L657.274 284.233L648.271 257.492C649.215 257.445 650.158 257.369 651.097 257.264C652.437 257.091 652.28 255.133 650.946 255.21C650.946 255.21 646.945 255.526 644.36 255.526C643.901 255.526 643.356 255.507 642.779 255.49C647.256 248.898 654.871 244.463 663.5 244.463C669.938 244.463 675.795 246.921 680.195 250.953C680.091 250.947 679.986 250.931 679.874 250.931C677.445 250.931 675.721 253.048 675.721 255.32C675.721 257.357 676.895 259.084 678.149 261.117C679.092 262.769 680.19 264.884 680.19 267.939C680.19 270.038 679.379 272.51 678.306 275.912L675.842 284.126L666.904 257.52L666.91 257.558ZM663.5 293.891C661.136 293.893 658.783 293.556 656.515 292.89L663.932 271.336L671.53 292.159C671.588 292.28 671.646 292.392 671.709 292.5C669.071 293.425 666.295 293.897 663.5 293.897V293.891ZM638.777 269.18C638.773 265.713 639.503 262.285 640.917 259.12L652.706 291.43C648.53 289.402 645.009 286.24 642.546 282.305C640.083 278.371 638.777 273.822 638.777 269.18ZM663.5 241.68C648.339 241.68 636 254.019 636 269.18C636 284.34 648.339 296.68 663.5 296.68C678.661 296.68 691 284.34 691 269.18C691 254.019 678.661 241.68 663.5 241.68Z" fill="#16161D"/>
<rect x="197" y="390.68" width="112" height="112" rx="56" fill="white"/>
<g clip-path="url(#clip3_1876_9103)">
<path d="M252.5 451.643C255.212 451.643 257.411 449.172 257.411 446.124C257.411 443.076 255.212 440.605 252.5 440.605C249.788 440.605 247.589 443.076 247.589 446.124C247.589 449.172 249.788 451.643 252.5 451.643Z" fill="#007ACC"/>
<path d="M252.5 458.776C246.598 458.936 240.71 458.042 235.057 456.127C232.446 455.197 230.01 453.731 227.874 451.805C227.058 451.146 226.379 450.298 225.883 449.317C225.387 448.336 225.086 447.246 225 446.122C225 442.473 228.567 438.897 234.542 436.557C240.346 434.484 246.411 433.479 252.5 433.581C258.508 433.487 264.491 434.474 270.222 436.504C272.737 437.405 275.09 438.8 277.171 440.623C277.973 441.251 278.642 442.069 279.13 443.019C279.619 443.969 279.916 445.029 280 446.122C280 449.915 276.013 453.758 269.589 456.147C264.046 458 258.283 458.886 252.5 458.776ZM252.5 436.222C246.674 436.134 240.873 437.089 235.314 439.052C229.814 441.208 227.349 444.158 227.349 446.116C227.349 448.164 229.999 451.385 235.817 453.621C241.225 455.445 246.856 456.293 252.5 456.136C258.032 456.247 263.547 455.406 268.853 453.641C274.893 451.392 277.643 448.167 277.643 446.122C277.544 445.421 277.316 444.75 276.975 444.152C276.633 443.555 276.185 443.043 275.659 442.65C273.796 441.032 271.694 439.796 269.45 438.999C263.968 437.064 258.245 436.127 252.5 436.222Z" fill="#007ACC"/>
<path d="M241.343 473.651C240.426 473.674 239.521 473.425 238.719 472.927C235.906 471.103 234.931 465.845 236.112 458.858C237.414 452.172 239.669 445.766 242.79 439.889C245.719 433.992 249.467 428.661 253.895 424.096C255.845 422.097 258.096 420.503 260.542 419.387C261.426 418.921 262.391 418.68 263.368 418.68C264.345 418.68 265.31 418.921 266.195 419.387C269.12 421.281 270.088 427.083 268.723 434.529C267.381 440.852 265.184 446.907 262.209 452.483C259.384 458.309 255.754 463.594 251.453 468.141C249.431 470.218 247.085 471.856 244.533 472.973C243.511 473.399 242.432 473.628 241.343 473.651ZM244.825 441.2C241.848 446.828 239.686 452.952 238.422 459.344C237.336 465.779 238.379 469.648 239.895 470.633C241.467 471.655 245.281 470.686 249.913 466.138C254.018 461.783 257.484 456.724 260.18 451.149C263.03 445.819 265.138 440.03 266.429 433.983C267.713 426.974 266.604 422.683 265.028 421.663C264.438 421.409 263.807 421.295 263.175 421.329C262.544 421.363 261.925 421.543 261.359 421.86C259.182 422.869 257.18 424.303 255.446 426.094C251.217 430.466 247.636 435.57 244.839 441.213L244.825 441.2Z" fill="#007ACC"/>
<path d="M263.651 473.677C260.99 473.677 257.609 471.867 254.089 468.465C249.584 463.859 245.772 458.464 242.8 452.489C239.718 446.693 237.48 440.38 236.173 433.789C235.606 430.889 235.501 427.9 235.862 424.959C235.946 423.868 236.242 422.811 236.728 421.862C237.215 420.914 237.881 420.097 238.679 419.469C241.6 417.568 246.556 419.522 251.614 424.568C255.819 429.032 259.389 434.195 262.202 439.875C265.282 445.536 267.543 451.711 268.9 458.169C269.491 461.175 269.582 464.278 269.169 467.322C269.07 468.444 268.757 469.529 268.251 470.503C267.744 471.476 267.056 472.315 266.234 472.962C265.445 473.454 264.553 473.7 263.651 473.677ZM244.833 451.16C247.684 456.87 251.326 462.033 255.621 466.456C260.039 470.728 263.543 471.646 265.05 470.651C266.621 469.624 267.78 465.434 266.586 458.655C265.277 452.489 263.109 446.595 260.161 441.191C257.477 435.754 254.069 430.811 250.054 426.533C245.293 421.782 241.431 420.72 239.858 421.745C239.367 422.193 238.965 422.75 238.676 423.381C238.387 424.013 238.217 424.705 238.178 425.414C237.866 428.036 237.968 430.7 238.479 433.284C239.737 439.586 241.882 445.623 244.835 451.165L244.833 451.16Z" fill="#007ACC"/>
</g>
<rect x="251" y="212.68" width="112" height="112" rx="56" fill="white"/>
<path d="M311.467 258.09C310.368 258.672 309.972 259.634 309.972 262.294C309.972 262.294 310.527 261.761 311.343 261.462C311.847 261.279 312.321 261.025 312.75 260.706C313.679 260.027 313.809 259.162 313.809 257.694C313.809 257.694 312.289 257.65 311.467 258.09ZM305.011 258.719C304.132 259.505 303.863 260.75 303.863 260.75L300.9 272.13L298.457 262.8C298.218 261.825 297.781 260.58 297.097 259.758C296.245 258.719 294.502 258.656 294.307 258.656C294.12 258.656 292.359 258.719 291.488 259.774C290.811 260.607 290.372 261.838 290.133 262.819L287.69 272.15L284.76 260.753C284.76 260.753 284.507 259.491 283.611 258.722C282.157 257.444 280 257.713 280 257.713L285.628 279.05C285.628 279.05 287.489 279.193 288.418 278.704C289.63 278.088 290.229 277.602 290.971 274.683C291.633 272.1 293.477 264.504 293.648 263.952C293.727 263.682 293.84 263.039 294.31 263.039C294.802 263.039 294.898 263.669 294.972 263.952C295.148 264.488 296.976 272.1 297.655 274.683C298.391 277.583 298.976 278.055 300.208 278.704C301.137 279.193 302.997 279.05 302.997 279.05L308.625 257.727C308.62 257.727 306.457 257.455 305.011 258.719ZM313.809 261.192C313.809 261.192 313.454 261.728 312.654 262.201C312.138 262.487 311.646 262.69 311.11 262.946C310.222 263.369 309.972 263.858 309.972 264.581V279.053C309.972 279.053 311.407 279.226 312.319 278.767C313.517 278.157 313.784 277.572 313.806 274.909V261.192H313.809ZM327.857 268.426L335 257.776C335 257.776 331.988 257.257 330.49 258.626C329.528 259.491 328.462 261.058 328.462 261.058L325.846 264.867C325.7 265.056 325.56 265.279 325.296 265.279C325.024 265.279 324.854 265.073 324.741 264.867L322.097 261.069C322.097 261.069 321.039 259.508 320.063 258.639C318.579 257.268 315.554 257.787 315.554 257.787L322.707 268.409L315.554 279.012C315.554 279.012 318.703 279.421 320.193 278.05C321.154 277.184 322.083 275.75 322.083 275.75L324.694 271.949C324.84 271.762 324.98 271.545 325.244 271.545C325.519 271.545 325.686 271.751 325.799 271.949L328.415 275.75C328.415 275.75 329.391 277.151 330.339 278.05C331.818 279.421 334.92 279.012 334.92 279.012L327.857 268.426Z" fill="#16161D"/>
<defs>
<clipPath id="clip0_1876_9103">
<rect width="55" height="55" fill="white" transform="translate(885 419.68)"/>
</clipPath>
<clipPath id="clip1_1876_9103">
<rect width="55" height="55" fill="white" transform="translate(457 676.68)"/>
</clipPath>
<clipPath id="clip2_1876_9103">
<rect width="55" height="55" fill="white" transform="translate(457 162.68)"/>
</clipPath>
<clipPath id="clip3_1876_9103">
<rect width="55" height="55" fill="white" transform="translate(225 418.68)"/>
</clipPath>
</defs>
</svg>
