<svg width="207" height="41" viewBox="0 0 207 41" fill="none" xmlns="http://www.w3.org/2000/svg">
<path d="M15.7352 24.0616C15.1331 23.2358 14.4966 22.5563 14.4966 21.0167V15.9076C14.4966 13.7314 14.6514 11.7445 13.0516 10.2479C11.7958 9.04375 9.7057 8.61369 8.10586 8.61369C4.9836 8.61369 1.49149 9.78346 0.760379 13.6454C0.682968 14.0497 0.984012 14.2647 1.25065 14.3335L4.43312 14.6776C4.73416 14.6604 4.9492 14.3679 5.0094 14.0755C5.28465 12.7423 6.39421 12.0972 7.64999 12.0972C8.32949 12.0972 9.09501 12.3552 9.49066 12.9487C9.95513 13.6282 9.89492 14.5486 9.89492 15.3313V15.7613C7.98544 15.9678 5.49968 16.114 3.71061 16.8967C2.64657 17.3236 1.73976 18.0677 1.11343 19.028C0.487103 19.9882 0.171633 21.1181 0.209898 22.2639C0.209898 25.6786 2.36021 27.3816 5.12982 27.3816C7.46937 27.3816 8.74235 26.8312 10.5486 24.9991C11.1421 25.8592 11.3313 26.2893 12.4237 27.1924C12.5463 27.258 12.6859 27.2848 12.8241 27.2695C12.9623 27.2541 13.0926 27.1973 13.1978 27.1064L15.7266 24.9389C16.0018 24.7153 15.9502 24.3626 15.7352 24.0616ZM9.88632 19.0986C9.88632 20.3888 9.92073 21.4468 9.28423 22.5907C8.75955 23.5111 7.92523 24.0788 7.0049 24.0788C5.74051 24.0788 5.0094 23.1154 5.0094 21.6962C5.0094 18.9008 7.51237 18.3933 9.89492 18.3933L9.88632 19.0986ZM58.8017 24.0616C58.1996 23.2358 57.5631 22.5563 57.5631 21.0167V15.9076C57.5631 13.7314 57.718 11.7445 56.1181 10.2479C54.8537 9.04375 52.7636 8.61369 51.1724 8.61369C48.0415 8.61369 44.5494 9.78346 43.8269 13.6454C43.7409 14.0497 44.0505 14.2733 44.3172 14.3335L47.4997 14.6776C47.7921 14.6604 48.0157 14.3679 48.0673 14.0755C48.3426 12.7423 49.4607 12.0972 50.7079 12.0972C51.3874 12.0972 52.1529 12.3552 52.5486 12.9487C53.0131 13.6282 52.9529 14.5486 52.9529 15.3313V15.7613C51.052 15.9764 48.5576 16.114 46.7771 16.8967C45.7108 17.3211 44.8014 18.0644 44.1733 19.0251C43.5452 19.9857 43.229 21.1168 43.2678 22.2639C43.2678 25.6786 45.4181 27.3816 48.1878 27.3816C50.5273 27.3816 51.8003 26.8312 53.6066 24.9991C54.2 25.8592 54.3979 26.2893 55.4902 27.1924C55.6125 27.2592 55.7524 27.2867 55.8908 27.2713C56.0293 27.2559 56.1597 27.1984 56.2643 27.1064V27.115C56.9266 26.5301 58.1222 25.498 58.7931 24.9389C59.0512 24.7153 59.0167 24.3626 58.7931 24.0616H58.8017ZM52.3422 22.5907C51.8175 23.5111 50.9832 24.0788 50.0628 24.0788C48.7984 24.0788 48.0673 23.1154 48.0673 21.6962C48.0673 18.9008 50.5789 18.3933 52.9529 18.3933V19.1072C52.9529 20.3888 52.9873 21.4468 52.3422 22.5907ZM96.7247 27.1494H93.4476C93.2923 27.1408 93.146 27.0741 93.0376 26.9626C92.9292 26.851 92.8668 26.7028 92.8627 26.5473L92.8541 9.68884C92.8692 9.53375 92.9423 9.39006 93.0587 9.28643C93.175 9.18281 93.3262 9.12686 93.482 9.12976H96.5269C96.6628 9.13348 96.7937 9.18182 96.8994 9.26731C97.0051 9.35281 97.0797 9.47071 97.1117 9.60283V12.1832H97.1806C98.1009 9.87807 99.3825 8.77711 101.653 8.77711C102.41 8.73956 103.164 8.90274 103.837 9.25015C104.511 9.59756 105.081 10.1168 105.489 10.7554C106.35 12.1144 106.35 14.3765 106.35 16.0108V26.6247C106.325 26.7743 106.246 26.9098 106.13 27.0062C106.013 27.1027 105.865 27.1535 105.713 27.1494H102.419C102.276 27.1431 102.139 27.0874 102.032 26.9917C101.926 26.896 101.856 26.7663 101.834 26.6247V17.4644C101.834 15.6237 102.049 12.9315 99.7867 12.9315C99.374 12.9471 98.9747 13.0822 98.6372 13.3204C98.2998 13.5586 98.0388 13.8896 97.8859 14.2733C97.4807 15.2861 97.3017 16.3752 97.3612 17.4644V26.5473C97.3545 26.7108 97.2842 26.8653 97.1653 26.9777C97.0464 27.0902 96.8883 27.1518 96.7247 27.1494ZM82.8853 8.77711C87.7622 8.77711 90.3942 12.9659 90.3942 18.2815C90.3942 23.4251 87.4869 27.5107 82.8853 27.5107C78.103 27.5107 75.4882 23.3218 75.4882 18.1095C75.4882 12.8627 78.1288 8.77711 82.8853 8.77711ZM82.9197 12.2176C80.4941 12.2176 80.3393 15.5205 80.3393 17.5762C80.3393 19.6319 80.3049 24.0272 82.8853 24.0272C85.4312 24.0272 85.5516 20.4834 85.5516 18.3245C85.6057 16.8178 85.4405 15.3111 85.0614 13.8518C84.6915 12.6821 83.9604 12.2176 82.9111 12.2176H82.9197ZM22.1775 27.1494H18.8918C18.7433 27.1441 18.6017 27.0856 18.4927 26.9846C18.3838 26.8835 18.3148 26.7466 18.2984 26.5989V9.74045C18.2984 9.3964 18.5908 9.13836 18.9349 9.13836H21.9969C22.3151 9.14696 22.5732 9.3964 22.599 9.69744V11.8994H22.6592C23.4505 9.76626 24.9557 8.77711 26.977 8.77711C29.0327 8.77711 30.3229 9.76626 31.2433 11.8994C31.5697 10.9652 32.1848 10.1592 32.9997 9.59788C33.8146 9.03656 34.787 8.74911 35.7761 8.77711C37.1523 8.77711 38.6576 9.34479 39.5779 10.6178C40.6272 12.037 40.4122 14.1013 40.4122 15.9076V26.5473C40.4122 26.8828 40.1198 27.1494 39.7757 27.1494H36.49C36.3341 27.1428 36.1865 27.0768 36.0778 26.9648C35.969 26.8528 35.9072 26.7034 35.9052 26.5473V17.602C35.9052 16.8967 35.9654 15.1248 35.8105 14.4539C35.5611 13.3186 34.83 12.9917 33.8752 12.9917C33.4489 13.0059 33.0359 13.1445 32.6874 13.3906C32.339 13.6367 32.0701 13.9794 31.9142 14.3765C31.5701 15.2367 31.6131 16.6473 31.6131 17.6106V26.5473C31.6131 26.8914 31.3293 27.1494 30.9766 27.1494H27.6909C27.5357 27.1408 27.3893 27.0741 27.2809 26.9626C27.1726 26.851 27.1101 26.7028 27.1061 26.5473V17.602C27.1061 15.7269 27.4071 12.9573 25.0762 12.9573C22.7194 12.9573 22.8054 15.6581 22.8054 17.602V26.5473C22.8055 26.6286 22.7891 26.7091 22.7573 26.7839C22.7254 26.8586 22.6787 26.9262 22.6201 26.9824C22.5614 27.0387 22.4919 27.0825 22.4159 27.1112C22.3398 27.1399 22.2587 27.1529 22.1775 27.1494ZM61.5627 12.1058V9.69744C61.5627 9.53776 61.6262 9.38461 61.7391 9.2717C61.852 9.15879 62.0051 9.09536 62.1648 9.09536H72.9766C73.3206 9.09536 73.5959 9.33619 73.5959 9.69744V11.7617C73.5959 12.1058 73.3034 12.5617 72.7874 13.2756L67.1966 21.2661C69.2609 21.2145 71.4628 21.5242 73.355 22.5821C73.7765 22.823 73.8883 23.1842 73.9227 23.5283V26.1001C73.9227 26.4441 73.5357 26.857 73.1314 26.6505C71.3657 25.742 69.4081 25.2695 67.4224 25.2725C65.4367 25.2755 63.4805 25.7539 61.7175 26.6677C61.3477 26.8656 60.952 26.4613 60.952 26.1087V23.6659C60.952 23.2788 60.952 22.6079 61.3563 22.0145L67.833 12.7165H62.1906C62.1101 12.7188 62.03 12.7049 61.9549 12.6757C61.8799 12.6465 61.8115 12.6025 61.7537 12.5463C61.696 12.4902 61.6501 12.423 61.6187 12.3489C61.5874 12.2747 61.5713 12.1949 61.5713 12.1144L61.5627 12.1058ZM68.5986 30.6931C67.8072 29.6868 63.3862 30.2201 61.3907 30.4523C60.7886 30.5297 60.7026 30.005 61.2445 29.618C64.771 27.1408 70.5596 27.8547 71.2219 28.689C71.91 29.5234 71.0499 35.3206 67.7384 38.0902C67.231 38.5203 66.7493 38.288 66.9729 37.729C67.7212 35.8711 69.3813 31.7081 68.5986 30.6931ZM66.0268 33.6262C59.8597 38.1762 50.923 40.5932 43.2248 40.5932C32.9392 40.6471 23.004 36.8589 15.3653 29.9706C14.789 29.4545 15.3051 28.7406 16.0018 29.1363C24.4877 33.9887 34.0946 36.5387 43.8699 36.5334C50.7079 36.5334 58.2168 35.1142 65.1322 32.1811C66.173 31.7511 67.0503 32.8693 66.0268 33.6262ZM199.604 27.6655C196.663 27.6655 194.409 26.857 192.827 25.2485C191.253 23.6315 190.461 21.3178 190.461 18.3073C190.461 15.2281 191.27 12.8025 192.878 11.0478C194.495 9.29319 196.732 8.41585 199.604 8.41585C201.806 8.41585 203.535 8.94914 204.782 10.0157C206.03 11.0909 206.649 12.5101 206.649 14.2905C206.693 15.081 206.53 15.8693 206.177 16.578C205.824 17.2867 205.293 17.8915 204.636 18.3331C203.294 19.2362 201.325 19.6921 198.719 19.6921C197.368 19.6921 196.19 19.5631 195.192 19.3051C195.338 20.8963 195.82 22.0317 196.637 22.7198C197.454 23.4079 198.693 23.7519 200.353 23.7519C201.015 23.7519 201.66 23.7089 202.288 23.6229C202.916 23.5369 203.793 23.3649 204.903 23.0724C205.031 23.0306 205.164 23.0074 205.298 23.0036C205.703 23.0036 205.901 23.2788 205.901 23.8207V25.455C205.901 25.842 205.849 26.1087 205.746 26.2549C205.581 26.451 205.363 26.5945 205.118 26.6677C203.36 27.3365 201.494 27.6748 199.613 27.6655H199.604ZM198.435 16.4924C199.639 16.4924 200.516 16.3118 201.067 15.942C201.609 15.5721 201.884 15.013 201.884 14.2561C201.884 12.7595 200.989 12.0198 199.217 12.0198C196.938 12.0198 195.622 13.4132 195.261 16.2086C196.207 16.3978 197.265 16.4924 198.435 16.4924ZM160.434 27.1322C160.133 27.1322 159.901 27.0634 159.763 26.9172C159.617 26.7796 159.548 26.5473 159.548 26.2463V9.84366C159.548 9.50821 159.617 9.27598 159.763 9.15556C159.901 9.01794 160.133 8.95774 160.443 8.95774H162.997C163.548 8.95774 163.875 9.21578 163.995 9.73185L164.279 10.6952C165.335 9.96992 166.476 9.37769 167.677 8.93193C168.683 8.58788 169.724 8.41585 170.79 8.41585C172.923 8.41585 174.429 9.18137 175.306 10.6952C176.51 9.88667 177.654 9.31039 178.721 8.95774C179.787 8.59648 180.897 8.42446 182.032 8.42446C183.692 8.42446 184.974 8.88032 185.894 9.80066C186.806 10.7296 187.262 12.0284 187.262 13.6884V26.2463C187.262 26.5473 187.193 26.7796 187.064 26.9172C186.935 27.0634 186.703 27.1322 186.376 27.1322H182.952C182.651 27.1322 182.419 27.0634 182.281 26.9172C182.135 26.7796 182.066 26.5473 182.066 26.2463V14.8238C182.066 13.2068 181.344 12.4068 179.899 12.4068C178.609 12.4068 177.319 12.7165 176.02 13.3272V26.2463C176.02 26.5559 175.951 26.7796 175.822 26.9172C175.693 27.0634 175.461 27.1322 175.134 27.1322H171.719C171.409 27.1322 171.186 27.0634 171.031 26.9172C170.893 26.7796 170.825 26.5559 170.825 26.2463V14.8238C170.825 13.2068 170.102 12.4068 168.657 12.4068C167.296 12.4141 165.955 12.7411 164.743 13.3616V26.2463C164.743 26.5559 164.675 26.7796 164.546 26.9172C164.417 27.0634 164.184 27.1322 163.858 27.1322H160.434ZM152.547 6.14512C151.755 6.18225 150.98 5.91444 150.379 5.39681C150.104 5.13792 149.889 4.82228 149.747 4.47177C149.606 4.12126 149.543 3.74427 149.562 3.36691C149.562 2.50678 149.829 1.83589 150.379 1.34562C150.979 0.827213 151.755 0.559285 152.547 0.597307C153.339 0.560172 154.114 0.82799 154.714 1.34562C155.265 1.83589 155.54 2.51539 155.54 3.36691C155.54 4.21844 155.265 4.89794 154.714 5.39681C154.114 5.91444 153.339 6.18225 152.547 6.14512ZM150.844 27.1322C150.534 27.1322 150.311 27.0634 150.164 26.9172C150.018 26.7796 149.949 26.5559 149.949 26.2463V9.84366C149.949 9.50821 150.018 9.27598 150.164 9.15556C150.311 9.01794 150.534 8.95774 150.844 8.95774H154.259C154.585 8.95774 154.818 9.01794 154.947 9.14696C155.076 9.27598 155.145 9.50821 155.145 9.84366V26.2463C155.145 26.5559 155.076 26.7796 154.947 26.9172C154.818 27.0634 154.585 27.1322 154.259 27.1322H150.844ZM136.626 27.1322C136.316 27.1322 136.093 27.0634 135.946 26.9172C135.809 26.7796 135.74 26.5559 135.74 26.2463V9.84366C135.74 9.50821 135.809 9.27598 135.946 9.15556C136.093 9.01794 136.316 8.95774 136.626 8.95774H139.189C139.731 8.95774 140.066 9.21578 140.178 9.73185L140.643 11.6585C141.402 10.7667 142.31 10.013 143.326 9.4308C144.157 8.99591 145.081 8.77146 146.019 8.77711H146.517C146.844 8.77711 147.085 8.84592 147.223 8.97494C147.369 9.10396 147.438 9.33619 147.438 9.66304V12.6563C147.438 12.9659 147.369 13.1896 147.24 13.3272C147.111 13.4734 146.879 13.5422 146.552 13.5422C146.336 13.5405 146.121 13.529 145.907 13.5078C145.575 13.4822 145.242 13.4707 144.909 13.4734C144.367 13.4734 143.705 13.5508 142.922 13.7056C142.238 13.8293 141.569 14.0254 140.927 14.2905V26.2463C140.927 26.5559 140.866 26.7796 140.737 26.9172C140.6 27.0634 140.368 27.1322 140.041 27.1322H136.626ZM115.321 34.4605C115.011 34.4605 114.787 34.3917 114.641 34.2627C114.504 34.1336 114.435 33.9014 114.435 33.5746V9.84366C114.435 9.50821 114.504 9.27598 114.641 9.15556C114.787 9.01794 115.011 8.95774 115.321 8.95774H117.884C118.426 8.95774 118.761 9.21578 118.873 9.73185L119.131 10.6608C119.876 9.95311 120.753 9.39795 121.711 9.02654C122.687 8.63115 123.729 8.42676 124.782 8.42446C127.079 8.42446 128.911 9.25878 130.244 10.9446C131.586 12.6305 132.257 14.9012 132.257 17.774C132.257 19.7523 131.921 21.464 131.259 22.9348C130.686 24.2927 129.752 25.4677 128.558 26.3323C127.41 27.1282 126.041 27.5434 124.644 27.5193C123.699 27.5266 122.76 27.3724 121.866 27.0634C121.044 26.7836 120.284 26.3453 119.63 25.7732V33.5746C119.63 33.9014 119.561 34.1336 119.432 34.2627C119.294 34.3917 119.071 34.4605 118.735 34.4605H115.321ZM123.113 23.6143C124.438 23.6143 125.419 23.1584 126.038 22.2639C126.674 21.3608 126.984 19.9415 126.984 17.9891C126.984 16.0194 126.683 14.5916 126.064 13.6884C125.444 12.7853 124.464 12.338 123.113 12.338C121.884 12.3338 120.677 12.6638 119.621 13.2928V22.6509C120.671 23.2946 121.882 23.6286 123.113 23.6143Z" fill="#797979"/>
</svg>
