<svg width="506" height="372" viewBox="0 0 506 372" fill="none" xmlns="http://www.w3.org/2000/svg">
<path d="M506 326.91H0V327.16H506V326.91Z" fill="#B07CD9"/>
<path d="M455.299 342.975H421.781V343.224H455.299V342.975Z" fill="#B07CD9"/>
<path d="M335.193 345.691H326.398V345.941H335.193V345.691Z" fill="#B07CD9"/>
<path d="M420.77 333.709H401.35V333.959H420.77V333.709Z" fill="#B07CD9"/>
<path d="M96.7981 335.387H53.0898V335.636H96.7981V335.387Z" fill="#B07CD9"/>
<path d="M112.22 335.387H105.814V335.636H112.22V335.387Z" fill="#B07CD9"/>
<path d="M227.853 339.602H133.049V339.851H227.853V339.602Z" fill="#B07CD9"/>
<path d="M239.843 282.376H44.4364C42.9056 282.373 41.4384 281.771 40.3569 280.702C39.2754 279.633 38.668 278.184 38.668 276.674V5.6515C38.6813 4.14979 39.2946 2.7139 40.3746 1.65573C41.4547 0.59756 42.9143 0.00257252 44.4364 0H239.843C241.376 0 242.846 0.600685 243.929 1.66991C245.013 2.73914 245.622 4.18932 245.622 5.70143V276.674C245.622 278.186 245.013 279.636 243.929 280.706C242.846 281.775 241.376 282.376 239.843 282.376V282.376ZM44.4364 0.199701C42.9727 0.202346 41.5698 0.777896 40.5358 1.80002C39.5017 2.82215 38.921 4.20732 38.921 5.6515V276.674C38.921 278.118 39.5017 279.503 40.5358 280.526C41.5698 281.548 42.9727 282.123 44.4364 282.126H239.843C241.308 282.123 242.712 281.548 243.748 280.526C244.783 279.504 245.366 278.119 245.369 276.674V5.6515C245.366 4.20641 244.783 2.82125 243.748 1.79941C242.712 0.777571 241.308 0.20234 239.843 0.199701H44.4364Z" fill="#B07CD9"/>
<path d="M458.75 282.376H263.333C261.801 282.373 260.333 281.771 259.25 280.703C258.167 279.634 257.557 278.185 257.555 276.674V5.6515C257.571 4.14888 258.186 2.713 259.268 1.6551C260.35 0.597211 261.81 0.00254447 263.333 0H458.75C460.271 0.00519668 461.728 0.601345 462.806 1.65923C463.883 2.71712 464.495 4.15151 464.509 5.6515V276.674C464.509 278.183 463.903 279.63 462.823 280.699C461.744 281.767 460.279 282.37 458.75 282.376V282.376ZM263.333 0.199701C261.869 0.20234 260.465 0.777571 259.429 1.79941C258.393 2.82125 257.81 4.20641 257.808 5.6515V276.674C257.81 278.119 258.393 279.504 259.429 280.526C260.465 281.548 261.869 282.123 263.333 282.126H458.75C460.215 282.123 461.619 281.548 462.655 280.526C463.69 279.504 464.273 278.119 464.276 276.674V5.6515C464.273 4.20641 463.69 2.82125 462.655 1.79941C461.619 0.777571 460.215 0.20234 458.75 0.199701H263.333Z" fill="#B07CD9"/>
<path d="M162.587 47.3184H90.4824V288.666H162.587V47.3184Z" fill="#FAFAFA"/>
<path d="M151.85 47.3184H147.64L122.492 288.666H126.702L151.85 47.3184Z" fill="#F5F5F5"/>
<path d="M161.313 48.2559H90.0176V50.3827H161.313V48.2559Z" fill="#8E58C5"/>
<path d="M161.313 286.561H90.0176V291.114H161.313V286.561Z" fill="#B07CD9"/>
<path d="M160.131 290.912H92.7617V291.112H160.131V290.912Z" fill="#B07CD9"/>
<path d="M92.7605 48.259H160.129V290.914H164.167V45.2734H88.7227V290.914H92.7605V48.259Z" fill="#B07CD9"/>
<path d="M242.83 47.3184H170.725V288.666H242.83V47.3184Z" fill="#FAFAFA"/>
<path d="M222.83 47.3184H199.838L174.689 288.666H197.672L222.83 47.3184Z" fill="#F5F5F5"/>
<path d="M243.579 48.2559H170.26V50.3827H243.579V48.2559Z" fill="#8E58C5"/>
<path d="M243.579 286.561H170.26V291.114H243.579V286.561Z" fill="#B07CD9"/>
<path d="M240.369 290.912H173V291.112H240.369V290.912Z" fill="#B07CD9"/>
<path d="M173.001 48.259H240.37V290.914H244.397V45.2734H168.963V290.914H173.001V48.259Z" fill="#B07CD9"/>
<path d="M321.036 47.3184H250.955V288.666H321.036V47.3184Z" fill="#FAFAFA"/>
<path d="M290.667 47.3184H286.457L261.309 288.666H265.519L290.667 47.3184Z" fill="#F5F5F5"/>
<path d="M321.795 48.2559H250.5V50.3827H321.795V48.2559Z" fill="#8E58C5"/>
<path d="M321.795 286.561H250.5V291.114H321.795V286.561Z" fill="#B07CD9"/>
<path d="M320.613 290.912H253.244V291.112H320.613V290.912Z" fill="#B07CD9"/>
<path d="M253.243 48.259H320.602V290.914H324.64V45.2734H249.205V290.914H253.243V48.259Z" fill="#B07CD9"/>
<path d="M403.302 47.3184H331.197V288.666H403.302V47.3184Z" fill="#FAFAFA"/>
<path d="M396.25 47.3184H373.268L348.109 288.666H371.102L396.25 47.3184Z" fill="#F5F5F5"/>
<path d="M402.036 48.2559H330.74V50.3827H402.036V48.2559Z" fill="#8E58C5"/>
<path d="M402.036 286.561H330.74V291.114H402.036V286.561Z" fill="#B07CD9"/>
<path d="M333.475 48.259H400.844V290.914H404.882V45.2734H329.447V290.914H333.475V48.259Z" fill="#B07CD9"/>
<path d="M400.842 290.912H333.473V291.112H400.842V290.912Z" fill="#B07CD9"/>
<path d="M140.274 233.139H108.973V286.548H140.274V233.139Z" fill="#B07CD9"/>
<path d="M134.271 225.67V239.07H131.802H117.452H114.982V225.67H134.271Z" fill="#B07CD9"/>
<path d="M134.262 239.072H138.27V235.118H134.262V239.072Z" fill="#FAFAFA"/>
<path d="M126.51 239.072H130.518V235.118H126.51V239.072Z" fill="#FAFAFA"/>
<path d="M118.746 239.072H122.754V235.118H118.746V239.072Z" fill="#FAFAFA"/>
<path d="M110.987 239.072H114.994V235.118H110.987V239.072Z" fill="#F0F0F0"/>
<path d="M134.262 246.262H138.27V242.308H134.262V246.262Z" fill="#F0F0F0"/>
<path d="M126.51 246.262H130.518V242.308H126.51V246.262Z" fill="#F0F0F0"/>
<path d="M118.746 246.262H122.754V242.308H118.746V246.262Z" fill="#FAFAFA"/>
<path d="M110.987 246.262H114.994V242.308H110.987V246.262Z" fill="#FAFAFA"/>
<path d="M134.262 253.439H138.27V249.485H134.262V253.439Z" fill="#F0F0F0"/>
<path d="M126.51 253.439H130.518V249.485H126.51V253.439Z" fill="#FAFAFA"/>
<path d="M118.746 253.439H122.754V249.485H118.746V253.439Z" fill="#FAFAFA"/>
<path d="M126.51 232.859H130.518V228.905H126.51V232.859Z" fill="#FAFAFA"/>
<path d="M118.746 232.859H122.754V228.905H118.746V232.859Z" fill="#F0F0F0"/>
<path d="M110.987 253.439H114.994V249.485H110.987V253.439Z" fill="#F0F0F0"/>
<path d="M134.262 260.629H138.27V256.675H134.262V260.629Z" fill="#FAFAFA"/>
<path d="M126.51 260.629H130.518V256.675H126.51V260.629Z" fill="#F0F0F0"/>
<path d="M118.746 260.629H122.754V256.675H118.746V260.629Z" fill="#F0F0F0"/>
<path d="M110.987 260.629H114.994V256.675H110.987V260.629Z" fill="#FAFAFA"/>
<path d="M134.262 267.807H138.27V263.853H134.262V267.807Z" fill="#F0F0F0"/>
<path d="M126.51 267.807H130.518V263.853H126.51V267.807Z" fill="#FAFAFA"/>
<path d="M118.746 267.807H122.754V263.853H118.746V267.807Z" fill="#FAFAFA"/>
<path d="M110.987 267.807H114.994V263.853H110.987V267.807Z" fill="#F0F0F0"/>
<path d="M134.262 274.988H138.27V271.034H134.262V274.988Z" fill="#F0F0F0"/>
<path d="M126.51 274.988H130.518V271.034H126.51V274.988Z" fill="#FAFAFA"/>
<path d="M118.746 274.988H122.754V271.034H118.746V274.988Z" fill="#F0F0F0"/>
<path d="M110.987 274.988H114.994V271.034H110.987V274.988Z" fill="#FAFAFA"/>
<path d="M134.262 282.174H138.27V278.22H134.262V282.174Z" fill="#FAFAFA"/>
<path d="M126.51 282.174H130.518V278.22H126.51V282.174Z" fill="#FAFAFA"/>
<path d="M118.746 282.174H122.754V278.22H118.746V282.174Z" fill="#F0F0F0"/>
<path d="M110.987 282.174H114.994V278.22H110.987V282.174Z" fill="#F0F0F0"/>
<path d="M316.756 233.139H285.455V286.548H316.756V233.139Z" fill="#B07CD9"/>
<path d="M310.754 225.67V239.07H308.284H293.934H291.465V225.67H310.754Z" fill="#B07CD9"/>
<path d="M310.746 239.072H314.754V235.118H310.746V239.072Z" fill="#FAFAFA"/>
<path d="M302.983 239.072H306.99V235.118H302.983V239.072Z" fill="#FAFAFA"/>
<path d="M295.219 239.072H299.227V235.118H295.219V239.072Z" fill="#FAFAFA"/>
<path d="M287.471 239.072H291.479V235.118H287.471V239.072Z" fill="#F0F0F0"/>
<path d="M310.746 246.262H314.754V242.308H310.746V246.262Z" fill="#F0F0F0"/>
<path d="M302.983 246.262H306.99V242.308H302.983V246.262Z" fill="#F0F0F0"/>
<path d="M295.219 246.262H299.227V242.308H295.219V246.262Z" fill="#FAFAFA"/>
<path d="M287.471 246.262H291.479V242.308H287.471V246.262Z" fill="#FAFAFA"/>
<path d="M310.746 253.439H314.754V249.485H310.746V253.439Z" fill="#F0F0F0"/>
<path d="M302.983 253.439H306.99V249.485H302.983V253.439Z" fill="#FAFAFA"/>
<path d="M295.219 253.439H299.227V249.485H295.219V253.439Z" fill="#FAFAFA"/>
<path d="M302.983 232.859H306.99V228.905H302.983V232.859Z" fill="#FAFAFA"/>
<path d="M295.219 232.859H299.227V228.905H295.219V232.859Z" fill="#F0F0F0"/>
<path d="M287.471 253.439H291.479V249.485H287.471V253.439Z" fill="#F0F0F0"/>
<path d="M310.746 260.629H314.754V256.675H310.746V260.629Z" fill="#FAFAFA"/>
<path d="M302.983 260.629H306.99V256.675H302.983V260.629Z" fill="#F0F0F0"/>
<path d="M295.219 260.629H299.227V256.675H295.219V260.629Z" fill="#F0F0F0"/>
<path d="M287.471 260.629H291.479V256.675H287.471V260.629Z" fill="#FAFAFA"/>
<path d="M310.746 267.807H314.754V263.853H310.746V267.807Z" fill="#F0F0F0"/>
<path d="M302.983 267.807H306.99V263.853H302.983V267.807Z" fill="#FAFAFA"/>
<path d="M295.219 267.807H299.227V263.853H295.219V267.807Z" fill="#FAFAFA"/>
<path d="M287.471 267.807H291.479V263.853H287.471V267.807Z" fill="#F0F0F0"/>
<path d="M310.746 274.988H314.754V271.034H310.746V274.988Z" fill="#F0F0F0"/>
<path d="M302.983 274.988H306.99V271.034H302.983V274.988Z" fill="#FAFAFA"/>
<path d="M295.219 274.988H299.227V271.034H295.219V274.988Z" fill="#F0F0F0"/>
<path d="M287.471 274.988H291.479V271.034H287.471V274.988Z" fill="#FAFAFA"/>
<path d="M310.746 282.174H314.754V278.22H310.746V282.174Z" fill="#FAFAFA"/>
<path d="M302.983 282.174H306.99V278.22H302.983V282.174Z" fill="#FAFAFA"/>
<path d="M295.219 282.174H299.227V278.22H295.219V282.174Z" fill="#F0F0F0"/>
<path d="M287.471 282.174H291.479V278.22H287.471V282.174Z" fill="#F0F0F0"/>
<path d="M366.486 252.59H338.443V286.539H366.486V252.59Z" fill="#F0F0F0"/>
<path d="M340.881 256.354H347.408H349.2H350.991V259.898H349.2H347.408H340.881V256.354Z" fill="#E6E6E6"/>
<path d="M340.881 263.225H347.408H349.2H350.991V266.759H349.2H347.408H340.881V263.225Z" fill="#FAFAFA"/>
<path d="M340.881 270.082H347.408H349.2H350.991V273.617H349.2H347.408H340.881V270.082Z" fill="#E6E6E6"/>
<path d="M340.881 276.945H347.408H350.181H350.991V280.49H350.181H347.408H340.881V276.945Z" fill="#FAFAFA"/>
<path d="M353.928 256.354H360.455H362.246H364.038V259.898H362.246H360.455H353.928V256.354Z" fill="#FAFAFA"/>
<path d="M353.928 263.225H360.455H362.985H364.038V266.759H362.985H360.455H353.928V263.225Z" fill="#FAFAFA"/>
<path d="M353.928 270.082H360.455H362.246H364.038V273.617H362.246H360.455H353.928V270.082Z" fill="#E6E6E6"/>
<path d="M353.928 276.945H360.455H362.246H364.038V280.49H362.246H360.455H353.928V276.945Z" fill="#FAFAFA"/>
<path d="M232.75 265.451H207.268V286.549H232.75V265.451Z" fill="#F0F0F0"/>
<path d="M227.851 271.303H231.109V268.088H227.851V271.303Z" fill="#FAFAFA"/>
<path d="M221.527 271.303H224.785V268.088H221.527V271.303Z" fill="#FAFAFA"/>
<path d="M215.222 271.303H218.48V268.088H215.222V271.303Z" fill="#FAFAFA"/>
<path d="M208.898 271.303H212.156V268.088H208.898V271.303Z" fill="#FAFAFA"/>
<path d="M227.851 277.143H231.109V273.927H227.851V277.143Z" fill="#FAFAFA"/>
<path d="M221.527 277.143H224.785V273.927H221.527V277.143Z" fill="#FAFAFA"/>
<path d="M215.222 277.143H218.48V273.927H215.222V277.143Z" fill="#FAFAFA"/>
<path d="M208.898 277.143H212.156V273.927H208.898V277.143Z" fill="#E6E6E6"/>
<path d="M227.851 282.992H231.109V279.777H227.851V282.992Z" fill="#E6E6E6"/>
<path d="M221.527 282.992H224.785V279.777H221.527V282.992Z" fill="#E6E6E6"/>
<path d="M215.222 282.992H218.48V279.777H215.222V282.992Z" fill="#FAFAFA"/>
<path d="M208.898 282.992H212.156V279.777H208.898V282.992Z" fill="#E6E6E6"/>
<path d="M282.783 265.451H257.301V286.549H282.783V265.451Z" fill="#F0F0F0"/>
<path d="M277.894 271.303H281.152V268.088H277.894V271.303Z" fill="#FAFAFA"/>
<path d="M271.571 271.303H274.83V268.088H271.571V271.303Z" fill="#FAFAFA"/>
<path d="M265.257 271.303H268.516V268.088H265.257V271.303Z" fill="#FAFAFA"/>
<path d="M258.941 271.303H262.199V268.088H258.941V271.303Z" fill="#FAFAFA"/>
<path d="M277.894 277.143H281.152V273.927H277.894V277.143Z" fill="#FAFAFA"/>
<path d="M271.571 277.143H274.83V273.927H271.571V277.143Z" fill="#FAFAFA"/>
<path d="M265.257 277.143H268.516V273.927H265.257V277.143Z" fill="#FAFAFA"/>
<path d="M258.941 277.143H262.199V273.927H258.941V277.143Z" fill="#E6E6E6"/>
<path d="M277.894 282.992H281.152V279.777H277.894V282.992Z" fill="#E6E6E6"/>
<path d="M271.571 282.992H274.83V279.777H271.571V282.992Z" fill="#E6E6E6"/>
<path d="M265.257 282.992H268.516V279.777H265.257V282.992Z" fill="#FAFAFA"/>
<path d="M258.941 282.992H262.199V279.777H258.941V282.992Z" fill="#E6E6E6"/>
<path d="M203.818 249.844H178.336V286.539H203.818V249.844Z" fill="#F0F0F0"/>
<path d="M202.187 251.463H192.604V260.529H202.187V251.463Z" fill="#FAFAFA"/>
<path d="M189.547 251.463H179.963V260.529H189.547V251.463Z" fill="#FAFAFA"/>
<path d="M202.187 263.154H192.604V272.221H202.187V263.154Z" fill="#FAFAFA"/>
<path d="M189.547 263.154H179.963V272.221H189.547V263.154Z" fill="#FAFAFA"/>
<path d="M202.187 274.848H192.604V283.914H202.187V274.848Z" fill="#FAFAFA"/>
<path d="M189.547 274.848H179.963V283.914H189.547V274.848Z" fill="#FAFAFA"/>
<path d="M396.228 249.844H370.746V286.539H396.228V249.844Z" fill="#F0F0F0"/>
<path d="M394.599 251.463H385.016V260.529H394.599V251.463Z" fill="#FAFAFA"/>
<path d="M381.959 251.463H372.375V260.529H381.959V251.463Z" fill="#FAFAFA"/>
<path d="M394.599 263.154H385.016V272.221H394.599V263.154Z" fill="#FAFAFA"/>
<path d="M381.959 263.154H372.375V272.221H381.959V263.154Z" fill="#FAFAFA"/>
<path d="M394.599 274.848H385.016V283.914H394.599V274.848Z" fill="#FAFAFA"/>
<path d="M381.959 274.848H372.375V283.914H381.959V274.848Z" fill="#FAFAFA"/>
<path d="M77.1653 299.651C77.1653 299.651 72.0446 288.667 77.8939 277.743C83.7433 266.82 85.4536 264.314 81.7193 262.077C77.985 259.84 76.2747 270.784 76.2747 270.784C74.4246 265.846 74.233 260.451 75.7282 255.397C78.319 247.529 79.9483 234.708 76.4063 233.34C72.8643 231.972 75.7282 249.316 72.6518 255.247C71.074 251.093 70.0534 246.752 69.6158 242.337C69.1907 236.016 69.8586 225.921 67.0554 223.365C64.2522 220.809 62.4609 222.566 65.2136 236.515C66.868 244.848 67.7822 253.308 67.9459 261.797C67.9459 261.797 61.8739 243.505 57.8259 242.966C53.7779 242.427 53.778 248.358 57.239 253.5C60.7 258.642 67.4501 267.808 68.5531 272.591C68.5531 272.591 61.8841 258.822 55.8728 263.046C49.8615 267.269 61.1048 275.587 66.1041 278.582C71.1034 281.578 74.5847 300.419 74.5847 300.419L77.1653 299.651Z" fill="#8E58C5"/>
<path d="M73.117 304.174C73.117 304.174 78.1062 293.071 72.105 282.287C66.1039 271.504 64.3936 268.957 68.057 266.681C71.7205 264.404 73.6028 275.298 73.6028 275.298C73.6028 275.298 76.6388 267.729 73.9671 259.901C71.2954 252.073 69.484 239.282 73.0158 237.854C76.5477 236.426 73.8862 253.83 77.0638 259.701C78.5816 255.515 79.541 251.151 79.9177 246.721C80.2618 240.4 79.4724 230.316 82.2453 227.689C85.0182 225.063 86.8296 226.821 84.2693 240.81C82.7178 249.165 81.9051 257.638 81.8405 266.132C81.8405 266.132 87.7 247.749 91.7783 247.16C95.8567 246.571 95.9174 252.492 92.4867 257.684C89.056 262.877 82.4274 272.183 81.3547 276.935C81.3547 276.935 87.8619 263.066 93.9137 267.2C99.9654 271.334 88.8536 279.811 83.8746 282.886C78.8956 285.962 75.6572 304.853 75.6572 304.853L73.117 304.174Z" fill="#B07CD9"/>
<path d="M96.141 296.266H54.9121L58.2517 325.372H92.8014L96.141 296.266Z" fill="#B07CD9"/>
<path d="M405.144 294.189C405.296 293.191 408.706 269.936 401.865 261.898C401.182 261.052 400.318 260.366 399.335 259.888C398.351 259.41 397.274 259.152 396.178 259.132C382.354 258.812 380.461 269.776 380.451 269.886L382.08 270.135C382.141 269.736 383.781 260.47 396.137 260.759C396.999 260.772 397.848 260.974 398.62 261.353C399.393 261.731 400.069 262.276 400.6 262.946C406.976 270.425 403.545 293.72 403.515 293.95L405.144 294.189Z" fill="#B07CD9"/>
<path d="M405.983 293.128L407.622 293.078C407.622 292.859 407.076 271.63 417.682 267.247C428.065 262.953 432.74 271.78 432.932 272.16L434.41 271.431C434.349 271.321 428.874 260.857 417.044 265.749C405.396 270.592 405.953 292.21 405.983 293.128Z" fill="#B07CD9"/>
<path d="M405.935 294.795C405.935 294.455 406.036 260.846 412.665 251.061C419.04 241.635 429.312 246.068 429.747 246.268L430.425 244.79C430.304 244.73 418.453 239.568 411.298 250.162C404.386 260.387 404.285 293.387 404.285 294.795H405.935Z" fill="#B07CD9"/>
<path d="M394.195 259.937C394.195 259.937 400.267 262.134 398.445 267.316C396.623 272.498 377.557 281.025 377.557 281.025C377.557 281.025 369.573 273.806 376.91 262.054C384.247 250.302 394.033 256.233 394.195 259.937Z" fill="#8E58C5"/>
<path d="M412.964 249.294C412.964 249.294 408.674 248.845 409.018 246.298C409.362 243.752 425.675 237.092 435.33 247.816C435.33 247.816 429.167 258.26 420.261 258.39C411.355 258.52 412.964 249.294 412.964 249.294Z" fill="#8E58C5"/>
<path d="M417.359 266.498C417.359 266.498 414.404 264.142 417.592 262.994C420.779 261.845 436.445 262.175 436.607 277.472C436.607 277.472 418.391 280.467 416.114 274.636C413.837 268.805 417.359 266.498 417.359 266.498Z" fill="#8E58C5"/>
<path d="M390.957 325.371H419.262L422.308 294.797H387.9L390.957 325.371Z" fill="#B07CD9"/>
<path d="M386.392 298.162H423.826V291.412H386.392V298.162Z" fill="#8E58C5"/>
<path d="M252.998 371.999C361.365 371.999 449.215 366.938 449.215 360.696C449.215 354.453 361.365 349.393 252.998 349.393C144.63 349.393 56.7812 354.453 56.7812 360.696C56.7812 366.938 144.63 371.999 252.998 371.999Z" fill="#F5F5F5"/>
<path d="M359.361 106.002H124.77V276.106H359.361V106.002Z" fill="#5A189A"/>
<path opacity="0.7" d="M359.361 106.002H124.77V276.106H359.361V106.002Z" fill="white"/>
<path d="M359.361 106.002H124.77V116.416H359.361V106.002Z" fill="#5A189A"/>
<path opacity="0.7" d="M352.875 114.018C354.446 114.018 355.719 112.762 355.719 111.212C355.719 109.662 354.446 108.406 352.875 108.406C351.304 108.406 350.031 109.662 350.031 111.212C350.031 112.762 351.304 114.018 352.875 114.018Z" fill="white"/>
<path opacity="0.7" d="M344.576 114.018C346.147 114.018 347.42 112.762 347.42 111.212C347.42 109.662 346.147 108.406 344.576 108.406C343.006 108.406 341.732 109.662 341.732 111.212C341.732 112.762 343.006 114.018 344.576 114.018Z" fill="white"/>
<path opacity="0.7" d="M336.277 114.018C337.848 114.018 339.121 112.762 339.121 111.212C339.121 109.662 337.848 108.406 336.277 108.406C334.707 108.406 333.434 109.662 333.434 111.212C333.434 112.762 334.707 114.018 336.277 114.018Z" fill="white"/>
<path opacity="0.1" d="M198.847 119.541H126.742V271.662H198.847V119.541Z" fill="black"/>
<path opacity="0.1" d="M200.861 271.672H357.883V119.551L200.861 119.551L200.861 271.672Z" fill="black"/>
<path opacity="0.2" d="M327.031 131.002H232.449V197.512H327.031V131.002Z" fill="black"/>
<path d="M323.042 126.08H228.461V192.59H323.042V126.08Z" fill="#5A189A"/>
<path opacity="0.5" d="M323.053 126.08H228.461V192.59H323.053V126.08Z" fill="white"/>
<path opacity="0.7" d="M321.646 138.289H229.857V191.2H321.646V138.289Z" fill="white"/>
<path d="M323.042 126.08H228.461V136.494H323.042V126.08Z" fill="#5A189A"/>
<path opacity="0.7" d="M316.564 134.096C318.135 134.096 319.408 132.84 319.408 131.29C319.408 129.741 318.135 128.484 316.564 128.484C314.994 128.484 313.721 129.741 313.721 131.29C313.721 132.84 314.994 134.096 316.564 134.096Z" fill="white"/>
<path opacity="0.7" d="M308.268 134.096C309.838 134.096 311.111 132.84 311.111 131.29C311.111 129.741 309.838 128.484 308.268 128.484C306.697 128.484 305.424 129.741 305.424 131.29C305.424 132.84 306.697 134.096 308.268 134.096Z" fill="white"/>
<path opacity="0.7" d="M302.803 131.29C302.803 131.845 302.636 132.388 302.323 132.849C302.011 133.31 301.567 133.67 301.047 133.882C300.528 134.095 299.956 134.15 299.404 134.042C298.853 133.934 298.346 133.667 297.948 133.274C297.55 132.882 297.28 132.382 297.17 131.838C297.06 131.293 297.116 130.729 297.332 130.216C297.547 129.704 297.911 129.266 298.379 128.957C298.847 128.649 299.397 128.484 299.959 128.484C300.333 128.483 300.703 128.555 301.049 128.695C301.394 128.836 301.708 129.042 301.973 129.303C302.237 129.564 302.446 129.874 302.589 130.215C302.731 130.556 302.804 130.921 302.803 131.29V131.29Z" fill="white"/>
<path opacity="0.2" d="M229.857 178.023L255.927 162.576L274.942 172.82L304.067 154.678L321.646 167.608V191.203H229.857V178.023Z" fill="#5A189A"/>
<path d="M256.453 152.359C256.453 153.741 256.038 155.092 255.259 156.242C254.481 157.391 253.375 158.287 252.08 158.816C250.786 159.345 249.361 159.484 247.987 159.214C246.613 158.944 245.351 158.278 244.36 157.301C243.369 156.323 242.695 155.078 242.421 153.722C242.148 152.366 242.288 150.961 242.824 149.684C243.361 148.407 244.269 147.315 245.433 146.547C246.598 145.779 247.968 145.369 249.369 145.369C251.248 145.369 253.05 146.106 254.378 147.416C255.707 148.727 256.453 150.505 256.453 152.359V152.359Z" fill="white"/>
<path opacity="0.2" d="M238.5 184.203H228.461V192.591H238.5V184.203Z" fill="black"/>
<path opacity="0.2" d="M340.488 228.885H245.906V275.844H340.488V228.885Z" fill="black"/>
<path d="M345.365 231.221H250.783V297.731H345.365V231.221Z" fill="#5A189A"/>
<path opacity="0.5" d="M345.365 231.221H250.783V297.731H345.365V231.221Z" fill="white"/>
<path opacity="0.7" d="M343.968 243.432H252.18V296.342H343.968V243.432Z" fill="white"/>
<path d="M293.199 250.852L285.923 272.499H281.601L276.177 256.523L270.662 272.499H266.31L259.074 250.852H263.304L268.759 267.297L274.436 250.852H278.191L283.737 267.397L289.353 250.852H293.199Z" fill="#263238"/>
<path d="M345.365 231.221H250.783V241.635H345.365V231.221Z" fill="#5A189A"/>
<path opacity="0.7" d="M341.732 236.431C341.732 236.986 341.566 237.528 341.253 237.99C340.941 238.451 340.497 238.811 339.977 239.023C339.457 239.235 338.886 239.291 338.334 239.183C337.782 239.074 337.276 238.807 336.878 238.415C336.48 238.022 336.209 237.522 336.1 236.978C335.99 236.434 336.046 235.87 336.261 235.357C336.477 234.844 336.841 234.406 337.309 234.098C337.776 233.79 338.326 233.625 338.889 233.625C339.643 233.625 340.366 233.921 340.899 234.447C341.433 234.973 341.732 235.687 341.732 236.431Z" fill="white"/>
<path opacity="0.7" d="M333.424 236.431C333.424 236.986 333.257 237.528 332.945 237.99C332.632 238.451 332.188 238.811 331.668 239.023C331.149 239.235 330.577 239.291 330.025 239.183C329.474 239.074 328.967 238.807 328.569 238.415C328.172 238.022 327.901 237.522 327.791 236.978C327.681 236.434 327.738 235.87 327.953 235.357C328.168 234.844 328.533 234.406 329 234.098C329.468 233.79 330.018 233.625 330.58 233.625C331.334 233.625 332.058 233.921 332.591 234.447C333.124 234.973 333.424 235.687 333.424 236.431Z" fill="white"/>
<path opacity="0.7" d="M325.125 236.431C325.125 236.986 324.958 237.528 324.646 237.99C324.333 238.451 323.889 238.811 323.369 239.023C322.85 239.235 322.278 239.291 321.726 239.183C321.175 239.074 320.668 238.807 320.27 238.415C319.873 238.022 319.602 237.522 319.492 236.978C319.382 236.434 319.439 235.87 319.654 235.357C319.869 234.844 320.234 234.406 320.701 234.098C321.169 233.79 321.719 233.625 322.281 233.625C323.035 233.625 323.759 233.921 324.292 234.447C324.825 234.973 325.125 235.687 325.125 236.431V236.431Z" fill="white"/>
<path d="M337.119 251.352H297.52V252.35H337.119V251.352Z" fill="#263238"/>
<path d="M337.119 256.492H297.52V257.491H337.119V256.492Z" fill="#263238"/>
<path d="M337.119 261.637H297.52V262.635H337.119V261.637Z" fill="#263238"/>
<path d="M337.119 266.777H297.52V267.776H337.119V266.777Z" fill="#263238"/>
<path d="M337.119 271.932H297.52V272.93H337.119V271.932Z" fill="#263238"/>
<path d="M337.109 277.074H259.033V278.073H337.109V277.074Z" fill="#263238"/>
<path d="M337.109 282.215H259.033V283.213H337.109V282.215Z" fill="#263238"/>
<path d="M337.109 287.357H259.033V288.356H337.109V287.357Z" fill="#263238"/>
<path opacity="0.2" d="M233.044 193.594H138.463V260.104H233.044V193.594Z" fill="black"/>
<path d="M237.103 186.594H142.521V253.104H237.103V186.594Z" fill="#5A189A"/>
<path opacity="0.5" d="M237.103 186.594H142.521V253.104H237.103V186.594Z" fill="white"/>
<path opacity="0.7" d="M235.704 198.803H143.916V251.713H235.704V198.803Z" fill="white"/>
<path d="M179.267 219.433L164.673 224.815L179.267 230.197V234.53L159.775 227.072V222.558L179.267 215.1V219.433Z" fill="#263238"/>
<path d="M194.65 204.289H199.366L185.431 243.64H180.705L194.65 204.289Z" fill="#263238"/>
<path d="M219.888 222.558V227.072L200.377 234.53V230.197L214.97 224.815L200.377 219.433V215.1L219.888 222.558Z" fill="#263238"/>
<path d="M237.103 186.594H142.521V197.008H237.103V186.594Z" fill="#5A189A"/>
<path opacity="0.7" d="M233.461 191.804C233.461 192.359 233.294 192.902 232.981 193.364C232.668 193.825 232.223 194.185 231.703 194.397C231.183 194.609 230.611 194.664 230.059 194.555C229.507 194.446 229 194.178 228.603 193.784C228.205 193.391 227.935 192.89 227.827 192.345C227.718 191.8 227.776 191.236 227.993 190.723C228.21 190.211 228.576 189.773 229.045 189.466C229.514 189.159 230.064 188.996 230.627 188.998C231 188.998 231.37 189.071 231.714 189.212C232.058 189.353 232.371 189.56 232.635 189.82C232.898 190.081 233.106 190.391 233.248 190.731C233.39 191.071 233.462 191.436 233.461 191.804V191.804Z" fill="white"/>
<path opacity="0.7" d="M225.16 191.804C225.16 192.359 224.993 192.901 224.681 193.363C224.368 193.824 223.924 194.184 223.405 194.396C222.885 194.608 222.313 194.664 221.762 194.556C221.21 194.447 220.703 194.18 220.306 193.788C219.908 193.395 219.637 192.895 219.527 192.351C219.418 191.807 219.474 191.243 219.689 190.73C219.904 190.217 220.269 189.779 220.736 189.471C221.204 189.163 221.754 188.998 222.316 188.998C223.071 188.998 223.794 189.294 224.327 189.82C224.86 190.346 225.16 191.06 225.16 191.804V191.804Z" fill="white"/>
<path opacity="0.7" d="M216.861 191.804C216.861 192.359 216.694 192.901 216.382 193.363C216.07 193.824 215.625 194.184 215.106 194.396C214.586 194.608 214.014 194.664 213.463 194.556C212.911 194.447 212.404 194.18 212.007 193.788C211.609 193.395 211.338 192.895 211.228 192.351C211.119 191.807 211.175 191.243 211.39 190.73C211.606 190.217 211.97 189.779 212.438 189.471C212.905 189.163 213.455 188.998 214.018 188.998C214.772 188.998 215.495 189.294 216.028 189.82C216.562 190.346 216.861 191.06 216.861 191.804V191.804Z" fill="white"/>
<path d="M339.019 125.591C339.282 126.15 339.201 126.739 338.826 126.909C338.452 127.079 337.956 126.759 337.693 126.21C337.43 125.661 337.511 125.072 337.885 124.902C338.26 124.732 338.776 125.042 339.019 125.591Z" fill="#263238"/>
<path d="M339.271 126.709C339.402 128.717 339.252 130.733 338.826 132.7C339.339 132.794 339.866 132.777 340.371 132.649C340.876 132.522 341.347 132.287 341.751 131.961L339.271 126.709Z" fill="#DE5753"/>
<path d="M339.647 121.566C339.703 121.524 339.746 121.467 339.77 121.402C339.793 121.337 339.797 121.266 339.781 121.198C339.765 121.131 339.73 121.069 339.679 121.021C339.628 120.973 339.565 120.941 339.495 120.927C338.93 120.808 338.344 120.823 337.786 120.972C337.228 121.122 336.714 121.401 336.287 121.786C336.22 121.855 336.184 121.947 336.186 122.043C336.188 122.138 336.228 122.229 336.298 122.295C336.367 122.362 336.461 122.398 336.558 122.396C336.655 122.394 336.747 122.354 336.814 122.285V122.285C337.156 121.986 337.566 121.771 338.01 121.658C338.453 121.545 338.917 121.538 339.364 121.636C339.413 121.645 339.464 121.644 339.513 121.632C339.562 121.62 339.608 121.597 339.647 121.566V121.566Z" fill="#263238"/>
<path d="M356.68 120.318C359.402 125.311 365.1 133.828 370.524 134.217C370.524 134.217 372.963 139.529 364.897 146.08C356.032 153.289 357.034 145.181 357.034 145.181C360.92 140.109 357.844 136.664 354.221 134.018L356.68 120.318Z" fill="#E4897B"/>
<path d="M357.236 115.825C360.029 122.815 362.032 126.809 360.191 131.881C357.438 139.55 347.45 140.358 342.592 134.317C338.21 128.886 334.375 118.341 339.849 112.53C341.05 111.241 342.564 110.276 344.248 109.727C345.933 109.178 347.732 109.063 349.474 109.393C351.216 109.723 352.844 110.488 354.202 111.614C355.561 112.739 356.605 114.189 357.236 115.825Z" fill="#E4897B"/>
<path d="M361.65 127.308C360.203 130.573 347.482 132.52 343.94 123.943C343.94 123.943 337.332 122.346 334.296 117.473C331.26 112.6 333.132 108.486 337.261 107.049C340.894 105.731 342.017 107.408 342.017 107.408C342.017 107.408 357.369 98.741 358.604 106.599C368.987 108.586 363.472 123.244 361.65 127.308Z" fill="#263238"/>
<path d="M347.329 123.393C348.013 125.139 348.099 127.057 347.571 128.855C346.843 131.212 344.768 130.922 343.523 129.045C342.41 127.357 341.449 124.052 342.866 122.315C344.282 120.578 346.478 121.307 347.329 123.393Z" fill="#E4897B"/>
<path d="M372.883 134.706C371.871 131.71 370.677 128.285 367.024 129.484C363.816 130.482 354.455 136.233 353.736 138.21C354.852 139.234 355.681 140.523 356.145 141.955L372.883 134.706Z" fill="#5A189A"/>
<path opacity="0.5" d="M372.883 134.706C371.871 131.71 370.677 128.285 367.024 129.484C363.816 130.482 354.455 136.233 353.736 138.21C354.852 139.234 355.681 140.523 356.145 141.955L372.883 134.706Z" fill="#FAFAFA"/>
<path d="M386.958 134.02C391.642 136.033 396.204 138.314 400.62 140.849C405.132 143.389 409.436 146.274 413.492 149.476C414.596 150.404 415.634 151.404 416.599 152.472C417.52 153.47 418.35 154.469 419.19 155.407C420.819 157.404 422.347 159.401 423.845 161.398C426.8 165.392 429.543 169.536 432.103 173.82L427.863 176.975L417.662 166.501C415.972 164.763 414.261 163.066 412.602 161.418C411.752 160.61 410.902 159.801 410.051 159.062C409.288 158.374 408.487 157.727 407.653 157.125C405.821 155.897 403.767 154.659 401.743 153.49C399.719 152.322 397.614 151.194 395.489 150.085C391.269 147.909 386.887 145.752 382.646 143.785L386.958 134.02Z" fill="#DC897C"/>
<path d="M431.879 185.971L429.318 181.467L437.182 179.131C437.182 179.131 438.76 182.765 437.03 185.691L431.879 185.971Z" fill="#E4897B"/>
<path d="M426.438 174.865L431.457 173.258L437.155 179.129L429.322 181.465L426.438 174.865Z" fill="#E4897B"/>
<path d="M381.716 131.243C388.051 128.777 402.148 139.511 402.148 139.511L396.906 155.217C391.979 154.156 387.417 151.846 383.669 148.517C376.757 142.556 375.229 133.799 381.716 131.243Z" fill="#263238"/>
<path opacity="0.2" d="M390.894 143.045C394.942 146.41 397.138 149.136 397.138 154.518L396.905 155.217C391.976 154.154 387.411 151.845 383.658 148.517C383.253 148.157 382.859 147.788 382.484 147.418L390.894 143.045Z" fill="black"/>
<path d="M407.128 190.951L366.961 198.051C365.332 194.706 361.851 182.724 355.212 168.255C353.421 164.331 351.387 160.267 349.14 156.074C346.576 151.394 343.769 146.849 340.73 142.454C344.919 140.913 349.201 139.632 353.552 138.62C358.612 137.502 374.471 131.511 379.126 131.061C385.279 130.482 385.957 133.128 385.957 133.128C385.957 133.128 394.205 141.685 407.128 190.951Z" fill="#263238"/>
<path opacity="0.2" d="M355.211 168.256C353.419 164.332 351.385 160.268 349.139 156.074L351.75 154.467C351.75 154.467 357.822 163.523 355.211 168.256Z" fill="black"/>
<path d="M305.41 162.524L300.229 161.766L300.826 169.824C300.826 169.824 304.874 169.983 306.989 167.337L305.41 162.524Z" fill="#E4897B"/>
<path d="M292.943 161.188L294.856 168.107L300.827 169.825L300.24 161.767L292.943 161.188Z" fill="#E4897B"/>
<path d="M347.116 150.983C346.984 151.772 346.863 152.351 346.731 152.98C346.6 153.609 346.448 154.258 346.286 154.897C345.972 156.165 345.638 157.413 345.274 158.671C344.518 161.204 343.595 163.686 342.511 166.1C341.39 168.621 340.035 171.035 338.463 173.309C336.717 175.828 334.523 178.013 331.986 179.76C330.558 180.707 328.996 181.444 327.351 181.946L326.714 182.116L326.39 182.206L325.894 182.306C325.279 182.41 324.656 182.454 324.032 182.436C323.023 182.415 322.022 182.257 321.057 181.966C319.544 181.501 318.09 180.865 316.725 180.069C315.523 179.378 314.367 178.611 313.264 177.773C309.159 174.623 305.461 170.988 302.254 166.949L305.988 163.214C309.797 165.968 313.761 168.508 317.859 170.823C318.871 171.352 319.883 171.822 320.784 172.211C321.595 172.568 322.448 172.823 323.324 172.97C323.548 173.011 323.778 173.011 324.002 172.97C324.052 172.97 324.002 172.97 324.002 172.97H323.951L324.073 172.92C324.155 172.894 324.236 172.864 324.315 172.83C325.01 172.549 325.661 172.172 326.248 171.712C327.67 170.543 328.882 169.145 329.831 167.578C330.964 165.788 331.93 163.9 332.715 161.936C333.568 159.875 334.314 157.772 334.952 155.636C335.282 154.557 335.586 153.469 335.862 152.371L336.257 150.733C336.379 150.214 336.51 149.605 336.601 149.186L347.116 150.983Z" fill="#DC897C"/>
<path d="M352.914 150.482C357.519 158.98 343.26 172.16 343.26 172.16L329.143 162.484C331.125 156.932 333.646 151.582 336.672 146.508C342.319 137.372 349.403 144.012 352.914 150.482Z" fill="#263238"/>
<path d="M349.423 353.968L341.216 354.817L340.801 350.124L339.678 337.353L347.885 336.494L349.13 350.603L349.423 353.968Z" fill="#E4897B"/>
<path d="M420.75 352.938H412.796L412.401 351.171L412.35 350.951L409.871 339.618L409.82 339.388L408.869 335.045H416.834L420.75 352.938Z" fill="#E4897B"/>
<path opacity="0.2" d="M347.885 336.494L349.13 350.603L340.801 350.124L339.678 337.353L347.885 336.494Z" fill="black"/>
<path opacity="0.2" d="M420.517 351.95H420.507L412.36 350.951H412.35L409.941 340.018H409.952L418.037 340.637L420.446 351.6L420.517 351.95Z" fill="black"/>
<path d="M411.694 352.471H421.359C421.517 352.47 421.671 352.523 421.795 352.621C421.919 352.72 422.004 352.857 422.037 353.01L423.605 360C423.638 360.169 423.632 360.344 423.589 360.511C423.546 360.678 423.466 360.834 423.355 360.967C423.244 361.101 423.104 361.208 422.947 361.283C422.789 361.357 422.616 361.396 422.441 361.398C419.314 361.348 417.037 361.158 413.111 361.158C410.692 361.158 403.396 361.408 400.056 361.408C396.716 361.408 396.281 358.153 397.647 357.853C403.78 356.535 408.395 354.708 410.358 352.97C410.721 352.64 411.2 352.461 411.694 352.471V352.471Z" fill="#263238"/>
<path d="M340.346 352.219H350.011C350.17 352.218 350.324 352.271 350.447 352.369C350.571 352.468 350.656 352.605 350.689 352.758L352.258 359.748C352.29 359.917 352.285 360.092 352.241 360.259C352.198 360.426 352.118 360.582 352.007 360.715C351.896 360.849 351.757 360.956 351.599 361.031C351.441 361.105 351.269 361.144 351.094 361.146C347.967 361.096 345.69 360.906 341.763 360.906C339.344 360.906 332.048 361.156 328.708 361.156C325.369 361.156 324.934 357.901 326.3 357.601C332.432 356.283 337.047 354.456 339.01 352.718C339.374 352.388 339.852 352.209 340.346 352.219V352.219Z" fill="#263238"/>
<path d="M338.93 346.948L350.669 347.328C346.398 269.884 344.405 265.93 382.496 229.355C383.387 240.419 384.389 251.891 385.371 261.457C385.988 267.378 386.18 272.55 387.172 276.345C393.952 301.996 410.276 347.388 410.276 347.388L421.732 347.897C421.732 347.897 407.392 285.68 405.914 265.401C403.981 238.801 410.276 210.004 406.693 189.186L366.679 195.885C330.389 248.287 323.74 259.61 338.93 346.948Z" fill="#5A189A"/>
<path opacity="0.3" d="M338.93 346.948L350.669 347.328C346.398 269.884 344.405 265.93 382.496 229.355C383.387 240.419 384.389 251.891 385.371 261.457C385.988 267.378 386.18 272.55 387.172 276.345C393.952 301.996 410.276 347.388 410.276 347.388L421.732 347.897C421.732 347.897 407.392 285.68 405.914 265.401C403.981 238.801 410.276 210.004 406.693 189.186L366.679 195.885C330.389 248.287 323.74 259.61 338.93 346.948Z" fill="white"/>
<path opacity="0.2" d="M382.537 229.305C383.428 240.369 384.43 251.871 385.411 261.437C386.808 247.628 388.609 237.782 388.609 237.782C388.609 237.782 390.259 236.444 394.792 229.305C399.326 222.166 394.792 208.836 394.792 208.836C394.894 221.217 382.537 229.305 382.537 229.305Z" fill="black"/>
<path d="M337.613 345.701L338.19 348.946H351.974V345.951L337.613 345.701Z" fill="#5A189A"/>
<path d="M408.918 346.949L410.244 349.945H422.792L422.56 346.949H408.918Z" fill="#5A189A"/>
<path opacity="0.7" d="M337.613 345.701L338.19 348.946H351.974V345.951L337.613 345.701Z" fill="white"/>
<path opacity="0.7" d="M408.918 346.949L410.244 349.945H422.792L422.56 346.949H408.918Z" fill="white"/>
<path d="M112.332 265.607L115.267 265.836C116.279 265.906 117.291 265.946 118.303 265.976C120.327 266.056 122.351 266.066 124.375 266.036C126.399 266.006 128.423 265.856 130.345 265.666C132.272 265.465 134.184 265.151 136.073 264.728L135.213 265.077C135.578 264.868 135.881 264.748 136.306 264.468C136.731 264.189 137.116 263.979 137.551 263.66C138.401 263.08 139.261 262.431 140.132 261.782C141.862 260.444 143.613 259.066 145.343 257.649L150.565 253.365L155.818 249.061C156.276 248.694 156.854 248.504 157.443 248.527C158.033 248.55 158.594 248.784 159.022 249.185C159.45 249.586 159.715 250.127 159.768 250.707C159.82 251.287 159.657 251.867 159.309 252.337C157.912 254.194 156.445 255.941 154.978 257.718C153.51 259.496 151.942 261.183 150.383 262.881C148.825 264.578 147.175 266.246 145.455 267.873C144.574 268.682 143.694 269.491 142.742 270.3C142.297 270.699 141.73 271.098 141.224 271.488C140.718 271.877 140.02 272.307 139.423 272.696C139.267 272.794 139.101 272.874 138.927 272.936L138.563 273.045C136.31 273.775 134.007 274.342 131.671 274.743C129.397 275.128 127.103 275.391 124.8 275.532C122.523 275.681 120.246 275.711 117.979 275.661C116.845 275.622 115.712 275.562 114.579 275.482C113.425 275.412 112.352 275.312 111.087 275.142C109.805 275.01 108.63 274.381 107.818 273.393C107.007 272.405 106.627 271.14 106.761 269.875C106.895 268.611 107.533 267.451 108.534 266.65C109.535 265.85 110.817 265.474 112.099 265.607H112.332Z" fill="#CE7A63"/>
<path d="M125.568 280.081L122.269 280.89L117.968 281.888C117.968 281.888 117.057 281.069 115.681 279.801C112.21 276.616 105.794 270.575 103.709 267.72C109.609 263.925 112.351 265.423 123.686 265.523C126.55 268.818 125.568 280.081 125.568 280.081Z" fill="#5A189A"/>
<path opacity="0.2" d="M122.271 280.89L117.97 281.888C117.97 281.888 117.06 281.069 115.683 279.801C115.534 278.228 115.504 276.646 115.592 275.068C118.349 276.321 120.671 278.345 122.271 280.89V280.89Z" fill="black"/>
<path d="M80.4542 234.46C80.4542 234.46 84.8868 226.373 96.8183 227.141C108.75 227.91 113.081 247.571 109.195 255.998C100.288 257.804 91.6526 260.73 83.5004 264.705C83.5004 264.705 74.6858 251.804 75.2829 242.838C75.88 233.871 80.4542 234.46 80.4542 234.46Z" fill="#263238"/>
<path d="M122.19 314.939L127.027 323.307C139.991 320.311 181.554 314.071 186.664 328.14C193.009 345.623 147.196 359.562 121.795 360.421C96.3938 361.28 74.2918 355.309 90.332 318.814L122.19 314.939Z" fill="#263238"/>
<path opacity="0.2" d="M122.19 314.939L127.027 323.307C139.991 320.311 181.554 314.071 186.664 328.14C193.009 345.623 147.196 359.562 121.795 360.421C96.3938 361.28 74.2918 355.309 90.332 318.814L122.19 314.939Z" fill="black"/>
<path d="M179.317 352.861C179.288 352.878 179.255 352.887 179.221 352.887C179.187 352.887 179.154 352.878 179.125 352.861C179.108 352.838 179.1 352.81 179.1 352.781C179.1 352.753 179.108 352.725 179.125 352.702C179.206 352.422 180.046 350.016 180.896 349.766C180.985 349.745 181.079 349.747 181.167 349.772C181.256 349.796 181.336 349.842 181.402 349.906C181.52 350.003 181.609 350.128 181.663 350.27C181.716 350.412 181.731 350.565 181.706 350.715C181.565 351.167 181.286 351.565 180.906 351.853C180.412 352.241 179.88 352.579 179.317 352.861V352.861ZM179.53 352.392C180.322 352.052 180.965 351.442 181.341 350.675C181.361 350.573 181.352 350.467 181.314 350.37C181.277 350.273 181.212 350.188 181.129 350.125C181.105 350.097 181.073 350.076 181.037 350.066C181.001 350.055 180.962 350.055 180.926 350.066C180.855 350.094 180.79 350.134 180.734 350.185C180.201 350.843 179.793 351.591 179.53 352.392V352.392Z" fill="#263238"/>
<path d="M179.265 352.892C179.238 352.902 179.208 352.902 179.18 352.893C179.153 352.884 179.129 352.866 179.113 352.842C179.032 352.773 177.858 351.315 178.051 350.336C178.103 350.09 178.247 349.873 178.455 349.727C178.545 349.643 178.661 349.591 178.784 349.58C178.907 349.569 179.03 349.6 179.133 349.667C179.751 350.097 179.67 352.044 179.366 352.783V352.862C179.336 352.882 179.301 352.892 179.265 352.892V352.892ZM178.607 350.027C178.5 350.117 178.425 350.24 178.395 350.376C178.433 351.108 178.71 351.809 179.184 352.373C179.376 351.544 179.316 350.176 178.951 349.927C178.951 349.927 178.84 349.847 178.658 349.977L178.607 350.027Z" fill="#263238"/>
<path d="M134.708 356.957C134.727 356.931 134.753 356.909 134.784 356.895C134.814 356.881 134.847 356.875 134.88 356.878C134.91 356.882 134.937 356.896 134.957 356.918C134.978 356.94 134.99 356.968 134.992 356.997C135.062 357.277 135.508 359.783 134.89 360.412C134.822 360.475 134.739 360.518 134.648 360.539C134.558 360.56 134.463 360.558 134.374 360.532C134.224 360.503 134.083 360.435 133.968 360.335C133.852 360.235 133.765 360.107 133.717 359.963C133.612 359.505 133.658 359.026 133.848 358.595C134.084 358.025 134.372 357.476 134.708 356.957ZM134.708 357.467C134.183 358.143 133.92 358.982 133.97 359.833C133.998 359.934 134.056 360.025 134.138 360.093C134.219 360.16 134.319 360.202 134.425 360.213C134.454 360.234 134.49 360.245 134.526 360.245C134.562 360.245 134.598 360.234 134.627 360.213C134.681 360.158 134.722 360.094 134.749 360.023C134.911 359.178 134.911 358.311 134.749 357.467H134.708Z" fill="#263238"/>
<path d="M151.326 344.295L140.882 347.959L135.873 349.727L137.158 355.139L142.006 354.11L153.866 351.624L151.326 344.295Z" fill="#EBB376"/>
<path d="M138.523 355.387L137.643 349.007C137.632 348.922 137.603 348.84 137.559 348.765C137.515 348.691 137.457 348.627 137.387 348.575C137.317 348.524 137.237 348.487 137.152 348.467C137.068 348.447 136.98 348.444 136.894 348.458L133.706 348.987C133.706 348.987 129.355 349.387 128.494 350.485C125.974 353.7 127.553 367.879 129.233 368.378C129.85 368.558 130.498 367.719 130.761 367.15C131.611 365.323 133.109 360.55 133.797 359.032C134.647 357.265 136.985 356.396 138.037 356.086C138.191 356.049 138.325 355.957 138.415 355.828C138.504 355.699 138.543 355.542 138.523 355.387V355.387Z" fill="#5A189A"/>
<path d="M134.738 356.916C134.761 356.899 134.79 356.891 134.819 356.891C134.848 356.891 134.876 356.899 134.9 356.916C135.001 356.916 136.741 357.655 137.055 358.603C137.096 358.722 137.111 358.848 137.101 358.974C137.09 359.099 137.054 359.221 136.994 359.332C136.958 359.448 136.884 359.548 136.783 359.617C136.682 359.686 136.56 359.719 136.438 359.711C135.689 359.622 134.798 357.884 134.697 357.095V357.016C134.697 357.016 134.707 356.926 134.738 356.916ZM136.762 359.092C136.807 358.963 136.807 358.822 136.762 358.693C136.559 358.094 135.588 357.555 135.092 357.315C135.325 358.134 136.053 359.312 136.488 359.312C136.488 359.312 136.63 359.312 136.721 359.132V359.062L136.762 359.092Z" fill="#263238"/>
<path opacity="0.2" d="M151.325 344.295L140.881 347.959L142.004 354.11L153.865 351.624L151.325 344.295Z" fill="black"/>
<path d="M143.856 355.039L146.861 355.259L144.848 345.064L141.447 346.922L143.856 355.039Z" fill="#5A189A"/>
<path opacity="0.6" d="M143.856 355.039L146.861 355.259L144.848 345.064L141.447 346.922L143.856 355.039Z" fill="white"/>
<path opacity="0.2" d="M100.311 315.438L115.946 332.502C115.946 332.502 133.231 332.132 154.22 342.247C154.22 342.247 176.747 333.071 178.811 325.442C181.524 315.457 127.027 323.266 127.027 323.266L100.311 315.438Z" fill="black"/>
<path d="M127.653 319.253L125.71 317.875C125.352 317.618 124.936 317.449 124.497 317.383C124.059 317.317 123.61 317.356 123.19 317.496L119.203 318.824C118.417 319.084 117.705 319.526 117.128 320.113C116.55 320.7 116.124 321.416 115.884 322.199L115.58 323.197C118.616 325.703 123.828 326.193 123.828 326.193L125.285 326.492C125.584 326.563 125.893 326.575 126.196 326.527C126.5 326.479 126.79 326.372 127.051 326.212C127.312 326.052 127.538 325.843 127.716 325.596C127.894 325.349 128.021 325.07 128.088 324.775L128.736 321.929C128.837 321.428 128.788 320.908 128.596 320.433C128.404 319.958 128.076 319.548 127.653 319.253V319.253Z" fill="#CE7A63"/>
<path d="M168.862 325.414V327.95C168.862 328.599 168.082 328.869 167.435 328.869H116.096C115.438 328.869 114.639 328.599 114.639 327.95V325.414H168.862Z" fill="#263238"/>
<path opacity="0.4" d="M168.862 325.414V327.95C168.862 328.599 168.082 328.869 167.435 328.869H116.096C115.438 328.869 114.639 328.599 114.639 327.95V325.414H168.862Z" fill="white"/>
<path opacity="0.2" d="M168.862 325.414V327.95C168.862 328.599 168.083 328.869 167.435 328.869H133.584C132.926 328.869 132.137 328.599 132.137 327.95V325.414H168.862Z" fill="black"/>
<path d="M177.445 299.103L171.373 326.452C171.258 326.895 170.997 327.288 170.63 327.569C170.263 327.849 169.813 328.001 169.349 328H135.953C135.745 327.995 135.541 327.943 135.357 327.847C135.173 327.751 135.014 327.615 134.893 327.449C134.771 327.282 134.69 327.091 134.657 326.888C134.623 326.686 134.637 326.478 134.698 326.282L140.77 299.143C140.895 298.722 141.167 298.357 141.536 298.113C141.906 297.868 142.351 297.759 142.794 297.805H176.19C177.101 297.805 177.647 298.205 177.445 299.103Z" fill="#263238"/>
<path opacity="0.4" d="M177.444 299.103L171.372 326.452C171.257 326.895 170.996 327.288 170.629 327.569C170.262 327.849 169.812 328.001 169.348 328H137.105C136.897 327.996 136.692 327.945 136.507 327.85C136.321 327.755 136.161 327.619 136.038 327.453C135.916 327.286 135.834 327.094 135.8 326.891C135.765 326.687 135.779 326.479 135.84 326.282L141.912 299.143C142.038 298.722 142.309 298.357 142.679 298.113C143.049 297.868 143.494 297.759 143.936 297.805H176.189C177.1 297.805 177.646 298.205 177.444 299.103Z" fill="white"/>
<path opacity="0.2" d="M160.989 313.001C160.989 315.338 158.449 317.245 156.577 317.245C154.705 317.245 153.612 315.338 154.138 313.001C154.664 310.665 156.526 308.828 158.358 308.758C157.822 311.104 158.965 313.001 160.817 313.001H160.989Z" fill="black"/>
<path d="M158.57 356.007L169.5 357.785L174.752 358.643L176.28 353.292L171.534 351.864L159.937 348.379L158.57 356.007Z" fill="#EBB376"/>
<path d="M175.209 352.414L172.851 358.405C172.821 358.484 172.806 358.569 172.809 358.653C172.812 358.738 172.832 358.822 172.867 358.899C172.903 358.976 172.954 359.045 173.017 359.103C173.081 359.16 173.155 359.205 173.236 359.234L176.272 360.302C176.272 360.302 180.32 362.019 181.575 361.47C185.359 359.863 190.936 346.712 189.671 345.494C189.225 345.035 188.244 345.494 187.728 345.834C186.088 347.022 182.435 350.487 181.059 351.465C179.439 352.603 177.011 352.254 175.907 352.024C175.764 352.002 175.617 352.029 175.49 352.1C175.363 352.17 175.264 352.281 175.209 352.414V352.414Z" fill="#5A189A"/>
<path opacity="0.2" d="M158.57 356.007L169.5 357.785L171.534 351.864L159.937 348.379L158.57 356.007Z" fill="black"/>
<path d="M169.652 350.745C169.652 350.745 125.124 326.023 109.691 326.722C94.2576 327.421 92.0919 340.81 98.4371 349.178C104.782 357.545 116.501 359.592 116.501 359.592C116.501 359.592 108.527 348.469 109.68 345.344C110.834 342.218 115.348 346.582 115.348 346.582C115.348 346.582 143.39 355.518 167.972 357.565L169.652 350.745Z" fill="#263238"/>
<path d="M170.37 350.066L167.85 348.389L164.602 358.214H168.498L170.37 350.066Z" fill="#5A189A"/>
<path opacity="0.6" d="M170.37 350.066L167.85 348.389L164.602 358.214H168.498L170.37 350.066Z" fill="white"/>
<path d="M122.191 314.939L90.3328 318.813C90.1563 315.512 89.7301 312.227 89.0577 308.988C88.0599 304.389 86.7584 299.86 85.1615 295.428C83.6637 291.175 81.7611 286.332 79.3526 280.691C78.8848 279.69 78.6498 278.599 78.6647 277.497C78.6797 276.395 78.9443 275.31 79.4391 274.322C79.934 273.334 80.6465 272.468 81.5246 271.787C82.4026 271.106 83.424 270.627 84.5138 270.386C85.7687 270.117 87.0843 269.847 88.4505 269.607C93.2268 268.689 98.0625 268.102 102.922 267.85C104.511 267.8 106.16 267.8 107.749 267.85C113.467 267.94 118.436 273.841 119.306 279.343C120.15 283.571 120.701 287.851 120.956 292.153C121.492 298.394 121.826 304.595 122.191 314.939Z" fill="#5A189A"/>
<path d="M87.457 253.412C89.2989 257.855 91.8896 266.083 89.2483 269.508C89.2483 269.508 93.5796 268.32 103.649 272.893C105.886 268.729 103.72 267.751 103.72 267.751C98.2753 267.171 97.6479 263.397 97.8402 259.763L87.457 253.412Z" fill="#CE7A63"/>
<path d="M101.533 271.987C98.4969 272.795 98.1123 277.508 98.1123 277.508C98.1123 277.508 90.0163 273.245 87.2637 269.88C88.1297 269.259 88.9607 268.593 89.7532 267.883C89.7532 267.883 99.519 270.449 101.533 271.987Z" fill="white"/>
<path d="M104.408 271.146C104.408 271.146 107.16 271.525 108.587 275.14C108.456 268.36 105.136 267.611 105.136 267.611C104.233 267.243 103.222 267.221 102.303 267.551C103.019 267.82 103.62 268.324 104.004 268.979C104.387 269.634 104.53 270.399 104.408 271.146Z" fill="white"/>
<path opacity="0.2" d="M91.6986 255.998L97.8414 259.742C97.7802 260.598 97.8006 261.457 97.9022 262.309C95.8782 262.309 92.7106 260.471 92.0832 258.464C91.8028 257.672 91.6724 256.836 91.6986 255.998Z" fill="black"/>
<path d="M82.3366 244.685C84.6744 251.924 85.5042 255.03 90.2404 258.065C97.3244 262.628 105.866 258.724 105.775 251.075C105.683 244.176 101.878 233.482 93.8228 231.984C92.106 231.603 90.3169 231.681 88.6411 232.211C86.9652 232.741 85.4636 233.704 84.2919 235C83.1202 236.295 82.321 237.877 81.9772 239.58C81.6334 241.283 81.7575 243.045 82.3366 244.685Z" fill="#CE7A63"/>
<path d="M92.0923 244.746C92.2542 245.365 92.7197 245.804 93.1043 245.744C93.4888 245.684 93.7013 245.095 93.5293 244.486C93.3573 243.877 92.8917 243.428 92.5173 243.488C92.1429 243.548 91.9202 244.137 92.0923 244.746Z" fill="#263238"/>
<path d="M99.8947 242.967C100.067 243.586 100.532 244.025 100.907 243.965C101.281 243.905 101.494 243.316 101.332 242.707C101.17 242.098 100.694 241.649 100.32 241.708C99.9453 241.768 99.7328 242.357 99.8947 242.967Z" fill="#263238"/>
<path d="M100.188 241.779L101.554 241.061C101.554 241.061 101.078 242.369 100.188 241.779Z" fill="#263238"/>
<path d="M97.8711 244.795C98.8126 246.096 99.9178 247.273 101.16 248.3C100.898 248.587 100.574 248.812 100.211 248.957C99.8478 249.103 99.456 249.165 99.0653 249.138L97.8711 244.795Z" fill="#BA4D3C"/>
<path d="M96.1409 252.113C96.4806 252.102 96.819 252.066 97.1529 252.003C97.177 251.999 97.1998 251.989 97.2198 251.975C97.2398 251.961 97.2567 251.944 97.2691 251.923C97.2816 251.902 97.2894 251.879 97.292 251.855C97.2947 251.831 97.2921 251.806 97.2845 251.784C97.2793 251.748 97.2643 251.714 97.2412 251.686C97.218 251.657 97.1875 251.636 97.1529 251.624C96.3653 251.783 95.5515 251.765 94.7719 251.571C93.9923 251.378 93.2669 251.014 92.6495 250.505C92.6316 250.488 92.6104 250.473 92.5869 250.464C92.5635 250.454 92.5383 250.449 92.5129 250.449C92.4875 250.449 92.4623 250.454 92.4389 250.464C92.4154 250.473 92.3942 250.488 92.3763 250.505C92.3428 250.541 92.3242 250.587 92.3242 250.635C92.3242 250.683 92.3428 250.73 92.3763 250.765C93.4221 251.653 94.7613 252.133 96.1409 252.113Z" fill="#263238"/>
<path d="M89.8668 241.109C89.9165 241.105 89.9648 241.09 90.0084 241.066C90.052 241.042 90.09 241.009 90.1198 240.969C90.3726 240.592 90.7171 240.283 91.1218 240.07C91.5265 239.857 91.9787 239.748 92.4372 239.751C92.4852 239.757 92.5339 239.753 92.58 239.738C92.626 239.723 92.6683 239.699 92.7039 239.667C92.7395 239.635 92.7676 239.595 92.7862 239.551C92.8048 239.507 92.8135 239.459 92.8117 239.412C92.8076 239.312 92.7676 239.217 92.699 239.144C92.6304 239.071 92.5376 239.024 92.4372 239.012C91.8564 239.001 91.282 239.133 90.766 239.397C90.25 239.66 89.8087 240.046 89.4822 240.52C89.4308 240.605 89.4137 240.705 89.4343 240.801C89.455 240.898 89.5119 240.983 89.5935 241.039C89.6723 241.096 89.77 241.121 89.8668 241.109Z" fill="#263238"/>
<path d="M102 238.286C102.047 238.288 102.094 238.28 102.138 238.263C102.181 238.246 102.221 238.22 102.253 238.186C102.322 238.117 102.361 238.024 102.361 237.927C102.361 237.83 102.322 237.736 102.253 237.667C101.84 237.226 101.329 236.885 100.76 236.671C100.192 236.456 99.5806 236.373 98.9744 236.429C98.9269 236.436 98.8815 236.452 98.8411 236.478C98.8008 236.503 98.7665 236.537 98.7405 236.577C98.7146 236.617 98.6977 236.662 98.6909 236.708C98.6841 236.755 98.6876 236.803 98.7011 236.848C98.723 236.945 98.7808 237.031 98.8631 237.088C98.9454 237.145 99.0465 237.17 99.1464 237.158C99.6267 237.12 100.11 237.19 100.558 237.363C101.007 237.536 101.41 237.807 101.737 238.156C101.809 238.226 101.901 238.271 102 238.286V238.286Z" fill="#263238"/>
<path d="M92.3457 243.555L93.7119 242.836C93.7119 242.836 93.2666 244.144 92.3457 243.555Z" fill="#263238"/>
<path d="M85.0095 248.73C85.0095 248.73 89.6748 242.889 86.649 236.209C86.649 236.209 95.9695 229.728 102.558 239.014C102.558 239.014 101.262 230.028 91.1422 230.637C81.0222 231.246 72.7441 246.943 86.143 254.152L85.0095 248.73Z" fill="#263238"/>
<path d="M81.416 251.197C81.9597 251.791 82.6168 252.273 83.3496 252.616C84.0825 252.958 84.8767 253.155 85.6867 253.194C87.7714 253.254 88.1863 251.137 87.0731 249.32C86.0611 247.692 83.7639 245.695 81.922 246.494C80.0802 247.293 80.0195 249.689 81.416 251.197Z" fill="#CE7A63"/>
<path d="M104.661 243.057C104.622 243.058 104.583 243.048 104.549 243.029C104.515 243.009 104.488 242.981 104.469 242.947C97.6177 230.965 86.4149 236.357 85.9392 236.597C85.8876 236.617 85.8301 236.618 85.7779 236.599C85.7258 236.58 85.6827 236.542 85.6573 236.493C85.6319 236.444 85.626 236.388 85.6407 236.335C85.6554 236.282 85.6897 236.236 85.7368 236.207C85.8583 236.147 97.7897 230.416 104.853 242.737C104.879 242.788 104.884 242.846 104.867 242.9C104.85 242.954 104.812 242.999 104.762 243.027C104.732 243.046 104.697 243.056 104.661 243.057V243.057Z" fill="#263238"/>
<path d="M164.603 247.401L164.198 249.398C164.125 249.773 163.962 250.126 163.722 250.426C163.483 250.727 163.174 250.967 162.822 251.125L159.472 252.623C158.812 252.917 158.091 253.052 157.368 253.017C156.645 252.983 155.941 252.779 155.313 252.423L154.523 251.964C154.959 248.559 157.964 245.194 157.964 245.194L158.713 244.136C158.861 243.916 159.052 243.727 159.274 243.58C159.496 243.433 159.746 243.331 160.009 243.28C160.271 243.229 160.542 243.23 160.804 243.282C161.066 243.335 161.315 243.438 161.537 243.587L163.672 245.025C164.047 245.287 164.335 245.652 164.5 246.074C164.666 246.497 164.701 246.958 164.603 247.401V247.401Z" fill="#CE7A63"/>
<path opacity="0.2" d="M89.0564 308.99C88.0586 304.391 86.757 299.861 85.1602 295.43C87.9229 289.988 90.6756 285.365 90.6756 285.365C90.6756 285.365 100.532 299.334 89.0564 308.99Z" fill="black"/>
<path d="M88.2058 284.417L88.9243 287.233C89.1875 288.232 89.4708 289.16 89.7643 290.129C90.3411 292.046 90.9888 293.953 91.6567 295.83C92.3247 297.707 93.1039 299.555 93.9236 301.302C94.737 303.036 95.6493 304.722 96.656 306.354L96.0387 305.665C96.3625 305.925 96.5751 306.185 96.9799 306.484C97.3847 306.784 97.7085 307.073 98.1538 307.383C98.9836 307.992 99.8742 308.601 100.785 309.2C102.617 310.388 104.499 311.587 106.422 312.745L112.21 316.26L118.019 319.794C118.519 320.105 118.887 320.584 119.054 321.142C119.222 321.701 119.177 322.3 118.929 322.829C118.681 323.357 118.247 323.779 117.707 324.014C117.167 324.249 116.558 324.283 115.995 324.108C113.769 323.389 111.624 322.58 109.448 321.771C107.272 320.962 105.147 320.054 103.022 319.135C100.896 318.217 98.761 317.218 96.656 316.14C95.644 315.581 94.5409 315.011 93.4581 314.382C92.9319 314.093 92.3651 313.693 91.8288 313.384C91.2924 313.074 90.665 312.525 90.0881 312.086C89.9483 311.975 89.8226 311.847 89.7137 311.706L89.4809 311.397C88.0617 309.522 86.78 307.55 85.6455 305.496C84.5501 303.492 83.5637 301.432 82.6904 299.325C81.8201 297.238 81.0611 295.121 80.3932 292.985C80.0693 291.916 79.7556 290.838 79.4621 289.749C79.1687 288.661 78.9258 287.623 78.6829 286.384C78.4334 285.158 78.6797 283.884 79.369 282.835C80.0584 281.785 81.1362 281.043 82.3725 280.767C83.6087 280.491 84.9055 280.702 85.9859 281.356C87.0663 282.01 87.8448 283.055 88.1552 284.268L88.2058 284.417Z" fill="#CE7A63"/>
<path d="M82.0313 271.424C76.4855 275.008 76.0403 280.64 78.5804 291.534C82.4159 293.601 91.9894 291.484 91.9894 291.484C91.9894 291.484 89.5909 274.589 82.0313 271.424Z" fill="#5A189A"/>
</svg>
